<?xml version="1.0" encoding="utf-8"?>
<!-- Generator: Adobe Illustrator 22.0.1, SVG Export Plug-In . SVG Version: 6.00 Build 0)  -->
<svg version="1.1" id="Layer_1" xmlns="http://www.w3.org/2000/svg" xmlns:xlink="http://www.w3.org/1999/xlink" x="0px" y="0px"
	 viewBox="0 0 947 236.7" style="enable-background:new 0 0 947 236.7;" xml:space="preserve">
<style type="text/css">
	.st0{fill:none;}
	.st1{fill:#051F38;}
</style>
<path class="st0" d="M664.5,222.1c27.3-0.1,39.5-22.7,39.5-72.8c0-25.1-2.2-38.3-8.5-51.9c-5.8-12.6-13.8-19.3-25.5-21.5
	c-5.9-1.1-6.8-1.1-12.7,0c-19,3.8-29.7,23-32.3,58.5c-2.6,35.4,3.6,65.6,16.3,78.6C647.4,219.4,654.6,222.2,664.5,222.1z"/>
<path class="st1" d="M146,1.9v5.4v5.4l4.8,0.6c2.6,0.4,6.4,0.9,8.5,1.2l3.7,0.6V58v42.9h-50H63V58V15.1l4.3-0.7
	C79.1,12.6,78,13.3,78,7.3V1.9H40H2v5.4v5.4l4.3,0.7c2.3,0.3,5.7,0.9,7.5,1.2l3.2,0.5l-0.2,100.7l-0.3,100.6l-7.2,0.8L2,218.1v5.9
	v5.9h38h38V224v-5.9l-7.2-0.9l-7.3-0.8l-0.3-45.8L63,124.9h50h50v45.4c0,37.9-0.2,45.5-1.4,45.9c-0.8,0.3-4.6,0.9-8.5,1.3l-7.1,0.7
	v5.8v5.9h39h39V224v-5.9l-6.7-0.7c-3.6-0.4-7.2-0.9-8-1.2c-1.1-0.4-1.3-18.4-1.3-100.8V15.1l4-0.6c2.2-0.3,5.8-0.9,8-1.2l4-0.6V7.3
	V1.9h-39H146z"/>
<path class="st1" d="M294,46.9c7.1,0,12.6-2.6,17.2-7.9c7.5-8.8,7.5-20.4-0.1-29.2c-7-8.3-18.3-10.3-28.2-5.1
	C262.1,15.5,270.4,46.9,294,46.9z"/>
<path class="st1" d="M420.8,218.3l-2.8-0.6V109.8V1.9h-28.5H361v4.9v4.9l6.8,0.8l6.7,0.9l0.3,102.2l0.2,102.1l-2.7,0.6
	c-1.6,0.3-4.7,0.8-7,1.1l-4.3,0.7v4.9v4.9h35.5H432V225v-4.9l-4.2-0.7C425.4,219.1,422.3,218.6,420.8,218.3z"/>
<path class="st1" d="M447,67.9v7.5v7.5h14.9h15l0.3,60.7c0.4,67.6,0.4,66.9,7.3,76.5c10.5,14.4,41.9,15.9,79.3,3.7l6.2-2.1v-5.5
	v-5.5l-3,0.7c-1.7,0.4-8.8,0.7-15.8,0.7c-18.2,0.1-24-2.1-28.4-11l-2.3-4.7l-0.3-56.8l-0.3-56.7H539h19v-7.5v-7.5h-19h-19V44.4
	c0-12.9-0.3-23.5-0.7-23.4c-0.5,0.1-9.9,2.9-21,6.3L478,33.4v17.2v17.3h-15.5H447z"/>
<path class="st1" d="M599,213.9c13,13.1,30.9,19.5,58,20.6c28.6,1.3,52-6.3,69-22.3c16.1-15.1,23.6-32.6,24.7-57.3
	c0.7-15.7-0.8-27.6-5.1-40.2c-4.4-13.1-8.6-19.8-18.1-29.3c-6.5-6.6-9.8-8.9-17.5-12.8c-13.1-6.4-23.2-8.7-40.5-9.2
	c-7.7-0.2-15.6-0.1-17.5,0.1c-15,2-33.7,9.5-44.2,17.8c-12.3,9.8-22.2,25.4-26.8,42.1c-3.1,11.2-3.9,36.1-1.6,49.4
	C582.7,191.4,588.1,202.9,599,213.9z M625,134.4c2.6-35.5,13.3-54.7,32.3-58.5c5.9-1.1,6.8-1.1,12.7,0c11.7,2.2,19.7,8.9,25.5,21.5
	c6.3,13.6,8.5,26.8,8.5,51.9c0,50.1-12.2,72.7-39.5,72.8c-9.9,0.1-17.1-2.7-23.2-9.1C628.6,200,622.4,169.8,625,134.4z"/>
<path class="st1" d="M840,229.9v-5c0-2.8-0.3-5-0.7-5.1c-0.5-0.1-3.7-0.6-7.3-1.3l-6.5-1.1v-58v-58l5-3.3c2.8-1.8,8.6-4.7,13-6.4
	c6.9-2.8,9.2-3.2,17-3.3c9.9,0,14.5,1.7,19.7,7.2c7.9,8.3,9,17.6,8.6,76.3l-0.3,45.5l-6.5,1.1c-3.6,0.7-6.8,1.2-7.2,1.3
	c-0.5,0.1-0.8,2.3-0.8,5.1v5h36h36V225c0-5.6,0-5.6-9.2-6.6l-5.7-0.7l-0.3-58.2c-0.3-57.6-0.4-58.2-2.7-65.1
	C925,84.9,922,80,916,74.6c-5.9-5.3-13.4-8.4-23.4-9.7c-8-1.1-8.7-1.1-17.4,0.1c-12.5,1.6-27.9,8.5-41,18.4c-4,3-7.8,5.5-8.3,5.5
	s-0.9-4.7-0.9-10.5V67.9h-28.5H768v5.4v5.4l4.8,0.6c2.6,0.4,5.9,0.9,7.5,1.2l2.7,0.6v68.3v68.3l-5.7,0.6c-9.3,1.1-9.3,1.1-9.3,6.7
	v4.9h36H840z"/>
<path class="st1" d="M320.8,218.4l-5.8-0.6v-75V67.9h-28.5H258v4.9v4.9l4.8,0.6c2.6,0.4,5.9,0.9,7.5,1.2l2.7,0.6l-0.2,68.6
	l-0.3,68.7l-6.5,1.1c-3.6,0.7-6.8,1.2-7.2,1.3c-0.5,0.1-0.8,2.3-0.8,5.1v5h36.1h36l-0.3-4.6C329.4,219.8,328.7,219.2,320.8,218.4z"
	/>
</svg>
