<?xml version="1.0" encoding="utf-8"?>
<!-- Generator: Adobe Illustrator 23.0.1, SVG Export Plug-In . SVG Version: 6.00 Build 0)  -->
<svg version="1.1" id="Layer_1" xmlns="http://www.w3.org/2000/svg" xmlns:xlink="http://www.w3.org/1999/xlink" x="0px" y="0px"
	 viewBox="0 0 124.7 43.6" style="enable-background:new 0 0 124.7 43.6;" xml:space="preserve">
<style type="text/css">
	.st0{fill:#23145F;}
	.st1{fill:#891993;}
</style>
<title>Endorsed_Tapestry</title>
<g id="hilton">
	<path class="st0" d="M10.3,0.5V2c0,0.2-0.1,0.3-0.3,0.3H0.3C0.1,2.3,0,2.2,0,2V0.5c0-0.2,0.1-0.3,0.3-0.3H10
		C10.2,0.2,10.3,0.3,10.3,0.5z M124.7,0.3c-0.1-0.1-0.1-0.1-0.3-0.1h-2c-0.1,0-0.2,0.1-0.2,0.1l-3.1,5.3l-3.1-5.3
		c-0.1-0.1-0.1-0.1-0.2-0.1h-1.9c-0.1,0-0.2,0-0.3,0.1c-0.1,0.1,0,0.2,0,0.3L118,8v5.1c0,0.2,0.1,0.3,0.3,0.3h1.7
		c0.2,0,0.3-0.1,0.3-0.3V7.9l0,0l4.4-7.3C124.8,0.5,124.8,0.4,124.7,0.3z M59,11.2h-5.9V7.7h4.8c0.2,0,0.3-0.1,0.3-0.3V5.9
		c0-0.2-0.1-0.3-0.3-0.3h-4.8V2.3h5.7c0.2,0,0.3-0.1,0.3-0.3V0.5c0-0.2-0.1-0.3-0.3-0.3c0,0,0,0,0,0h-7.7c-0.2,0-0.3,0.1-0.3,0.3
		c0,0,0,0,0,0V13c0,0.2,0.1,0.3,0.3,0.3c0,0,0,0,0,0h8c0.2,0,0.3-0.1,0.3-0.3c0,0,0,0,0,0v-1.6C59.3,11.3,59.2,11.2,59,11.2z
		 M71.4,5.7c-1.9-0.9-2.5-1.5-2.5-2.3c0-0.7,0.5-1.4,1.7-1.4c1,0.1,1.9,0.4,2.7,1l0,0c0.2,0.1,0.4,0,0.6-0.2l0.7-1
		c0.1-0.1,0.1-0.2,0-0.3c0-0.1-0.1-0.2-0.1-0.2C73.4,0.5,72,0,70.7,0c-2.3,0-4.1,1.3-4.1,3.4c0,2,1.1,3.1,3.4,4.2
		c1.7,0.8,2.6,1.4,2.6,2.4c0,0.9-0.5,1.5-2,1.5c-1.1-0.1-2.2-0.5-3.1-1.2l-0.1,0c-0.1-0.1-0.2-0.1-0.3-0.1c-0.1,0-0.2,0.1-0.2,0.2
		l-0.7,1.2c-0.1,0.3-0.1,0.3,0.1,0.5c1.2,1,2.7,1.5,4.2,1.5c2.7,0,4.4-1.5,4.4-3.6C74.9,7.8,73.7,6.8,71.4,5.7z M6.1,4H4.2
		C4.1,4,4,4.1,4,4.2V13c0,0.2,0.1,0.3,0.3,0.3c0,0,0,0,0,0H6c0.2,0,0.3-0.1,0.3-0.3l0,0V4.2C6.3,4.1,6.2,4,6.1,4z M86.8,4h-1.9
		c-0.1,0-0.2,0.1-0.2,0.2V13c0,0.2,0.1,0.3,0.3,0.3h1.8c0.2,0,0.3-0.1,0.3-0.3V4.2C87,4.1,86.9,4,86.8,4C86.8,4,86.8,4,86.8,4
		L86.8,4z M107.3,12.9c0.1,0.1,0.1,0.2,0,0.3c-0.1,0.1-0.2,0.1-0.3,0.1h-2c-0.1,0-0.2,0-0.2-0.1l-2.5-5l0,0H100V13
		c0,0.2-0.1,0.3-0.3,0.3H98c-0.2,0-0.3-0.1-0.3-0.3V0.5c0-0.2,0.1-0.3,0.3-0.3h5.2c2.1-0.1,3.9,1.5,4.1,3.6c0,0.1,0,0.3,0,0.4
		c-0.1,1.7-1.1,3.1-2.7,3.7L107.3,12.9z M104.8,4.2c0-1-0.8-1.9-1.8-1.9c-0.1,0-0.2,0-0.3,0H100v3.9h2.7c1.1,0.1,2-0.7,2.1-1.8
		C104.8,4.4,104.8,4.3,104.8,4.2z M43.4,4.3c0.1,2.3-1.7,4.1-4,4.2c-0.1,0-0.3,0-0.4,0h-2.5v4.5c0,0.2-0.1,0.3-0.3,0.3h-1.7
		c-0.2,0-0.3-0.1-0.3-0.3V0.5c0-0.2,0.1-0.3,0.3-0.3H39C41.6,0.2,43.4,1.9,43.4,4.3z M41.1,4.3c0-1.1-0.9-2.1-2.1-2.1
		c-0.1,0-0.1,0-0.2,0h-2.3v4.2h2.3c1.2,0.1,2.2-0.8,2.3-2C41.1,4.4,41.1,4.4,41.1,4.3z M27,12.9c0,0.1,0,0.2,0,0.3
		c-0.1,0.1-0.1,0.1-0.2,0.1h-1.7c-0.2,0-0.4-0.1-0.5-0.3l-1-2.1h-5.8L17,13c-0.1,0.2-0.3,0.3-0.5,0.3h-1.7c-0.1,0-0.2,0-0.2-0.1
		c0-0.1-0.1-0.2,0-0.3l5.9-12.8c0-0.1,0.1-0.2,0.3-0.2h0.2c0.1,0,0.2,0.1,0.3,0.2L27,12.9z M22.8,8.9l-2-4.3l0,0h-0.2l-1.9,4.3
		L22.8,8.9z M90.7,0.2H81c-0.2,0-0.3,0.1-0.3,0.3V2c0,0.2,0.1,0.3,0.3,0.3h9.8C90.9,2.3,91,2.2,91,2V0.5C91,0.3,90.9,0.2,90.7,0.2
		L90.7,0.2z"/>
	<path class="st1" d="M72.2,27.3c0.1,0.1,0.1,0.3-0.1,0.4c-0.8,0.8-2,1.2-3.1,1.1c-2.6,0-4.7-2.1-4.7-4.7c0-2.6,2.1-4.7,4.7-4.7
		c1.1,0,2.3,0.4,3.1,1.2c0.1,0.1,0.1,0.3,0,0.4c0,0,0,0,0,0l-0.7,0.9c-0.1,0.1-0.2,0.1-0.3,0c0,0,0,0,0,0c-0.6-0.5-1.3-0.8-2-0.8
		c-1.7,0-3,1.3-3,3s1.3,3,3,3c0.8,0,1.5-0.3,2.1-0.7c0.1-0.1,0.2-0.1,0.3,0c0,0,0,0,0,0L72.2,27.3z M44,27.1h-3.8v-7.3
		c0-0.1-0.1-0.2-0.2-0.2h-1.2c-0.1,0-0.2,0.1-0.2,0.2v8.6c0,0.1,0.1,0.2,0.2,0.2l0,0H44c0.1,0,0.2-0.1,0.2-0.2l0,0v-1.1
		C44.2,27.2,44.1,27.1,44,27.1z M52.5,27.1h-3.8v-7.3c0-0.1-0.1-0.2-0.2-0.2h-1.2c-0.1,0-0.2,0.1-0.2,0.2v8.6c0,0.1,0.1,0.2,0.2,0.2
		l0,0h5.2c0.1,0,0.2-0.1,0.2-0.2v-1.1C52.7,27.2,52.6,27.1,52.5,27.1C52.5,27.1,52.5,27.1,52.5,27.1L52.5,27.1z M61,19.6h-5.4
		c-0.1,0-0.2,0.1-0.2,0.2v8.6c0,0.1,0.1,0.2,0.2,0.2l0,0h5.4c0.1,0,0.2-0.1,0.2-0.2l0,0v-1.1c0-0.1-0.1-0.2-0.2-0.2h-3.9v-2.3h3.3
		c0.1,0,0.2-0.1,0.2-0.2l0,0v-1.1c0-0.1-0.1-0.2-0.2-0.2h-3.3v-2.1h3.9c0.1,0,0.2-0.1,0.2-0.2v-1.1C61.3,19.7,61.2,19.6,61,19.6
		L61,19.6z M22.4,26.4c-0.1-0.1-0.2-0.1-0.3,0c0,0,0,0,0,0c-0.6,0.5-1.4,0.7-2.1,0.7c-1.7,0-3-1.3-3-3s1.3-3,3-3
		c0.7,0,1.5,0.3,2,0.8c0.1,0.1,0.2,0.1,0.3,0c0,0,0,0,0,0l0.7-0.9c0.1-0.1,0.1-0.3,0-0.4c0,0,0,0,0,0c-0.8-0.8-2-1.2-3.1-1.2
		c-2.6,0-4.7,2.1-4.7,4.7c0,2.6,2.1,4.7,4.7,4.7c1.1,0.1,2.3-0.4,3.1-1.1c0.1-0.1,0.1-0.2,0-0.4L22.4,26.4z M109.2,19.6H108
		c-0.1,0-0.2,0.1-0.2,0.2v5.3h0l-5.4-5.7h-0.3c-0.1,0-0.2,0.1-0.2,0.2v8.7c0,0.1,0.1,0.2,0.2,0.2h1.2c0.1,0,0.2-0.1,0.2-0.2
		c0,0,0,0,0,0v-5.6h0l5.4,5.9h0.3c0.1,0,0.2-0.1,0.2-0.2v-8.7C109.5,19.7,109.3,19.6,109.2,19.6L109.2,19.6z M85.4,19.6h-1.2
		c-0.1,0-0.2,0.1-0.2,0.2v8.6c0,0.1,0.1,0.2,0.2,0.2h1.2c0.1,0,0.2-0.1,0.2-0.2v-8.6C85.6,19.7,85.5,19.6,85.4,19.6L85.4,19.6z
		 M80.9,19.6h-6.6c-0.1,0-0.2,0.1-0.2,0.2v1.1c0,0.1,0.1,0.2,0.2,0.2h2.5v7.3c0,0.1,0.1,0.2,0.2,0.2h1.2c0.1,0,0.2-0.1,0.2-0.2v-7.3
		h2.5c0.1,0,0.2-0.1,0.2-0.2v-1.1C81.2,19.7,81.1,19.6,80.9,19.6L80.9,19.6z M35,24.2c0,2.6-2.1,4.6-4.7,4.6s-4.6-2.1-4.6-4.7
		c0-2.6,2.1-4.6,4.6-4.6C32.9,19.5,35,21.5,35,24.2C35,24.1,35,24.1,35,24.2z M33.3,24.2c0-1.6-1.3-3-2.9-3c-1.6,0-3,1.3-3,2.9
		c0,0,0,0.1,0,0.1c0,1.6,1.4,2.9,3,2.9C32,27,33.3,25.8,33.3,24.2z M98.4,24.2c0,2.6-2.1,4.6-4.7,4.6s-4.6-2.1-4.6-4.7
		c0-2.6,2.1-4.6,4.6-4.6C96.3,19.5,98.3,21.5,98.4,24.2C98.4,24.1,98.4,24.1,98.4,24.2L98.4,24.2z M96.7,24.2c0-1.6-1.3-3-2.9-3
		c-1.6,0-3,1.3-3,2.9c0,0,0,0.1,0,0.1c0,1.6,1.4,2.9,3,2.9C95.4,27,96.6,25.8,96.7,24.2z"/>
	<path class="st0" d="M43.3,36.2c-0.6,0-1.2,0.3-1.6,0.7v-2.8H40v0.3l0.4,0.1v6.4L40,40.9v0.3h1.7V41c0.4,0.2,0.8,0.4,1.2,0.4
		c1.5,0,2.3-1,2.3-2.6C45.3,37.2,44.5,36.2,43.3,36.2z M42.8,40.9c-0.4,0-0.8-0.2-1.1-0.4v-3.2c0.3-0.1,0.6-0.2,0.9-0.2
		c0.8,0,1.3,0.7,1.3,1.9C44,40.2,43.5,40.9,42.8,40.9z M49.2,36.3h1.4v0.3l-0.4,0.1l-2,4.8c-0.5,1.1-0.9,2-1.8,2
		c-0.3,0-0.6,0-0.8-0.1v-1.1h0.3l0.2,0.4c0.1,0.1,0.3,0.1,0.4,0.1c0.6,0,1-0.9,1.2-1.5l0.1-0.1l-2-4.6l-0.4-0.1v-0.3h2.2v0.4
		l-0.4,0.1l1.3,3l1.2-3l-0.4-0.1L49.2,36.3z M57.4,34.3h2.3v0.3l-0.5,0.1v6.1l0.5,0.1v0.4h-2.3v-0.4l0.5-0.1v-2.8h-3v2.8l0.5,0.1
		v0.4h-2.3v-0.4l0.5-0.1v-6.1l-0.5-0.1v-0.3h2.3v0.3l-0.5,0.1v2.6h3v-2.6l-0.5-0.1L57.4,34.3z M61.1,34.8c0-0.4,0.3-0.8,0.7-0.8
		c0.4,0,0.8,0.3,0.8,0.7c0,0,0,0,0,0c0,0.4-0.3,0.8-0.7,0.8c0,0,0,0,0,0C61.5,35.6,61.1,35.3,61.1,34.8
		C61.1,34.8,61.1,34.8,61.1,34.8L61.1,34.8z M62.5,40.9l0.4,0.1v0.3h-2.2v-0.3l0.4-0.1v-4.2l-0.4-0.1v-0.3h1.7V40.9z M65.5,40.9
		l0.4,0.1v0.3h-2.2v-0.3l0.4-0.1v-6.4l-0.4-0.1v-0.3h1.7V40.9z M69.4,40.7c0.2,0,0.5,0,0.7-0.1V41c-0.5,0.2-1,0.3-1.6,0.3
		c-1,0-1.2-0.5-1.2-1.3v-3.2h-0.9v-0.5h0.9v-1l1.2-0.4v1.4h1.2v0.5h-1.2v2.9C68.6,40.5,68.8,40.7,69.4,40.7L69.4,40.7z M73,36.2
		c-1.4-0.1-2.6,0.9-2.6,2.3c0,0.1,0,0.2,0,0.3c-0.2,1.2,0.7,2.4,1.9,2.6c0.2,0,0.5,0,0.7,0c1.3,0.1,2.5-0.9,2.6-2.2
		c0-0.1,0-0.2,0-0.3c0.2-1.3-0.8-2.5-2.1-2.6C73.3,36.2,73.1,36.2,73,36.2z M72.9,41c-0.7,0-1.2-0.7-1.2-2.2c0-1.6,0.5-2.2,1.2-2.2
		c0.7,0,1.2,0.7,1.2,2.2C74.1,40.4,73.7,41,72.9,41L72.9,41z M81.2,40.9l0.4,0.1v0.3h-2.1v-0.3l0.4-0.1v-2.8c0-0.8-0.3-1.1-0.9-1.1
		c-0.4,0-0.7,0.2-1,0.4v3.5l0.4,0.1v0.3h-2.2v-0.3l0.4-0.1v-4.1l-0.4-0.1v-0.3h1.7V37c0.5-0.5,1.1-0.7,1.8-0.8c1,0,1.4,0.6,1.4,1.7
		L81.2,40.9z M81.6,34.3H83v0.3h-0.1l0-0.2h-0.4v1.2l0.2,0v0.1H82v-0.1l0.2,0v-1.2h-0.4l0,0.2h-0.1V34.3z M84.8,34.4v1.2l0.1,0v0.1
		h-0.6v-0.1l0.1,0v-1.1L84,35.8h-0.1l-0.5-1.2v1.1l0.1,0v0.1h-0.4v-0.1l0.1,0v-1.2l-0.1,0v-0.1h0.5l0.4,1l0.4-1H85v0.1L84.8,34.4z"
		/>
</g>
</svg>
