<svg height="68" viewBox="0 0 83 68" width="83" xmlns="http://www.w3.org/2000/svg"><g fill="none"><g fill="#097" transform="translate(29.997177)"><path d="m.23997741.20152262v29.47397428h23.03783169v-29.47397428zm21.95793339 28.52320098h-20.99802373v-27.45358095h20.99802373z"/><path d="m1.7998306 1.74652933v26.38396087h19.7981367v-26.38396087zm3.47967251 13.31082707c.71993224.7130801 1.31987577.8319267 2.15979672.9507734v-8.0815736c0-1.42616004-1.19988707-1.66385339-1.7998306-1.78270006v-.59423335h11.75889327v4.15963347h-.9599096c0-2.13924007-1.5598532-2.97116676-2.9997177-2.97116676h-2.7597403v8.2004203c.7199323-1.7827001 1.4398645-2.2580868 2.6397516-2.6146268l-.1199887.71308c.8399209-.5942333 1.4398644-.5942333 2.2797854-.5942333 0 0-.1199887.5942333-.1199887.5942333.9599096 0 1.7998306.4753867 2.1597967 1.1884667-.7199322-.1188466-1.1998871-.1188466-2.039808 0l.3599661.7130801c-.8399209.1188466-1.1998871.1188466-1.7998306.4753866l.4799548.5942334c-.5999435.8319267-2.1597967 1.1884667-3.5996612.5942334h-.1199887c.3599661-.2376934.5999436-.4753867 1.0798984-.8319267 2.2797854-1.9015468 3.2396951-2.0203934 4.6795596-1.9015468-.7199323-.5942333-2.6397516-.71308-4.4395822.8319267-3.95962733 3.3277068-6.23941276 1.9015468-7.43929983.9507734zm12.47882549 9.2700403h-12.11885937v-.5942333c.59994353-.1188467 1.7998306-.35654 1.7998306-1.7827001v-4.3973268c.95990966.1188467 2.03980802-.1188467 3.23969507-.9507733v6.4177202h3.1197064c2.039808 0 2.9997177-1.6638534 2.9997177-3.6842468h.9599096z"/></g><g fill="#000"><g transform="translate(0 35.654001)"><path d="m5.87944664 5.07423611c-.11998871-1.06962004-.11998871-1.06962004-1.6798419-1.18846671v2.73347343h.59994354c1.19988707 0 1.7998306 0 2.27978543-.23769335.59994353-.35654001.71993224-.71308002.83992095-1.42616004h.47995483l-.11998871.95077336c0 .59423336-.11998871.8319267-.11998871.95077337 0 .23769334-.1199887.23769334-.47995483.23769334-.1199887 0-.59994353 0-.71993224 0-1.67984189 0-2.27978543 0-4.19960474 0-.35996612 0-1.19988707 0-2.03980802 0v-.35654001h1.19988707v-5.70464019h-1.19988707v-.35654001h7.07933371v.83192669l.11998871.95077337h-.47995483c-.11998871-.35654002-.11998871-.71308003-.47995483-.95077337-.47995482-.47538668-1.31987577-.47538668-2.27978543-.47538668h-.71993224v2.37693341c.71993224 0 1.07989836 0 1.31987578-.23769334.35996612-.23769334.35996612-.59423335.35996612-.95077336h.47995482c0 .59423335-.1199887 1.1884667-.1199887 1.78270005v.95077337h-.11998871"/><path d="m22.5578769 1.03344931v5.70464019h1.1998871v.35654001h-.3599661c-.5999436 0-1.3198758 0-1.9198194 0-.5999435 0-1.6798419 0-2.2797854 0v-.35654001h1.1998871c0-1.42616005 0-3.09001344 0-4.8727135-.1199887.47538669-.2399774.59423336-.4799548 1.06962004l-1.1998871 2.25808674c-.5999436 1.06962003-.7199323 1.42616005-.9599097 1.90154673h-.5999435c-.1199887-.35654001-.2399774-.59423335-.4799548-1.18846671l-1.9198193-4.15963347v4.99156017h1.199887v.35654001c-.3599661 0-1.0798983 0-1.4398645 0-.4799548 0-1.199887 0-1.6798419 0v-.35654001h1.1998871c0-2.61462676 0-3.44655345 0-5.70464019-.1199887 0-.1199887 0-.4799548 0h-.7199323v-.35654001h1.5598532 2.0398081c.2399774.59423335.2399774.71308002.5999435 1.30731337l1.3198758 2.73347343 1.3198757-2.73347343c.3599662-.83192669.4799549-1.06962003.5999436-1.42616004h3.4796725v.35654001z"/><path d="m31.5570299 3.8857694c.5999436 0 1.3198758 0 1.9198193.23769334.3599662.23769335.5999436.59423336.5999436 1.06962004 0 .59423335-.3599661.95077336-.7199323 1.1884667-.4799548.35654002-1.3198757.35654002-1.7998306.35654002 0-.23769334 0-.95077337 0-1.54500672zm-2.1597967 1.30731338v1.42616005h-1.1998871v.35654001h2.3997742.8399209.9599097c.9599096 0 2.5197628 0 3.3596838-.95077337.2399774-.23769334.4799548-.59423335.4799548-.95077336 0-.23769334-.1199887-.59423335-.3599661-.8319267-.4799549-.47538668-1.4398645-.71308002-1.7998306-.71308002-.1199887 0-.2399774 0-.3599661 0 .1199887 0 .2399774-.11884667.3599661-.11884667.3599661-.11884667 1.7998306-.47538668 1.7998306-1.54500672 0-.47538668-.2399774-.95077336-1.1998871-1.30731337-.3599661-.11884667-.9599096-.23769334-1.7998306-.23769334-.3599661 0-1.0798984.11884667-1.5598532.11884667h-.7199322c-.7199323 0-1.3198758 0-2.3997742 0v.35654001h1.1998871v1.66385339zm2.1597967-4.15963347c.1199887-.11884667.2399774-.11884667.4799549-.11884667.4799548 0 .9599096 0 1.199887.23769334.2399774.11884667.4799549.47538668.4799549.95077336 0 .35654002-.2399775.8319267-.4799549 1.06962004-.4799548.35654001-1.199887.35654001-1.6798419.35654001z"/><path d="m45.3557312 2.81614937c-.7199322-1.66385339-.8399209-1.78270006-1.0798983-2.37693341h-1.3198758c-.2399774.71308002-.3599661 1.06962003-.839921 2.25808674l-.7199322 1.54500671c-.5999435 1.54500672-.839921 1.90154673-1.0798984 2.37693342h-.9599096v.35654001h2.9997177v-.35654001h-1.0798984l.7199322-1.66385339h2.2797855l.7199322 1.66385339h-1.0798984v.35654001h4.4395822v-.35654001h-.9599097c-.2399774-.35654002-.2399774-.47538669-.5999435-1.30731338-.1199887-.35654001-.3599661-.71308002-.5999435-1.18846671zm-3.2396951 1.78270006.9599097-2.25808674c.1199887.35654001.2399774.71308002.7199322 1.66385338l.2399774.59423336z"/><path d="m53.1549972 4.7176961c.1199887.47538668.2399774.71308002.3599661.95077336.3599661.59423335 1.0798984 1.06962004 2.039808 1.06962004 1.1998871 0 1.7998306-.59423336 1.7998306-1.18846671 0-.71308002-.5999435-.83192669-1.4398645-1.06962003l-.7199322-.11884667c-.839921-.23769335-2.5197629-.59423336-2.5197629-2.0203934 0-1.18846671 1.3198758-2.0203934 2.7597403-2.0203934.839921 0 1.4398645.23769334 1.7998306.35654001l.3599661-.23769334.3599662.11884667c-.1199888.71308002-.1199888.83192669-.1199888 1.06962003 0 .35654001 0 .59423336.1199888.95077337l-.4799549.11884667c-.1199887-.47538668-.1199887-.59423336-.2399774-.8319267-.3599661-.59423335-.9599096-.95077336-1.7998306-.95077336-.8399209 0-1.4398645.35654001-1.4398645.95077336 0 .59423336.5999436.71308003 1.6798419 1.06962004l.7199323.23769334c.7199322.23769334 2.2797854.59423335 2.2797854 2.0203934 0 1.1884667-1.3198758 2.25808674-2.9997177 2.25808674-1.0798983 0-1.7998306-.35654001-2.1597967-.47538668l-.3599661.35654001-.3599661-.11884667c0-.35654001.1199887-.71308002.1199887-.95077337 0-.47538668 0-.71308002-.1199887-1.1884667z"/><path d="m64.1939582 4.7176961c.1199887.47538668.2399774.71308002.3599661.95077336.3599662.59423335.9599097 1.06962004 2.0398081 1.06962004 1.199887 0 1.7998306-.59423336 1.7998306-1.18846671 0-.71308002-.5999436-.83192669-1.4398645-1.06962003l-.7199323-.11884667c-.8399209-.23769335-2.5197628-.59423336-2.5197628-2.0203934 0-1.18846671 1.3198758-2.0203934 2.7597402-2.0203934.839921 0 1.4398645.23769334 1.7998307.35654001l.3599661-.23769334.3599661.11884667c-.1199887.71308002-.1199887.83192669-.1199887 1.06962003 0 .35654001 0 .59423336.1199887.95077337l-.4799548.11884667c-.1199887-.47538668-.1199887-.59423336-.2399774-.8319267-.3599662-.59423335-.9599097-.95077336-1.7998307-.95077336-.8399209 0-1.4398644.35654001-1.4398644.95077336 0 .59423336.5999435.71308003 1.6798419 1.06962004l.7199322.23769334c.7199322.23769334 2.2797854.59423335 2.2797854 2.0203934 0 1.1884667-1.3198757 2.25808674-2.9997176 2.25808674-1.0798984 0-1.7998306-.35654001-2.1597968-.47538668l-.3599661.35654001-.3599661-.11884667c0-.35654001 0-.71308002 0-.95077337 0-.47538668 0-.71308002-.1199887-1.1884667z"/><path d="m79.432524 4.12346274v2.49578009h1.3198758v.35654001c-2.1597968 0-2.3997742 0-4.7995483 0v-.35654001h1.3198758v-2.49578009l-1.4398645-2.0203934c-.3599661-.35654001-.4799548-.59423335-.9599097-1.1884667h-.9599096v-.35654001h4.4395821v.35654001h-1.0798983l1.7998306 2.61462675 1.199887-1.78270006c.2399775-.23769334.3599662-.59423335.4799549-.83192669h-1.0798984v-.35654001h2.879729v.35654001h-.9599097z"/></g><g transform="translate(11.998871 48.727135)"><path d="m.83992095 4.7176961c.11998871.47538668.23997741.71308002.35996612.95077336.35996612.59423335 1.07989836.95077337 2.03980802.95077337 1.19988707 0 1.7998306-.59423336 1.7998306-1.18846671 0-.71308002-.59994353-.83192669-1.43986448-1.06962003l-.71993224-.23769335c-.83992095-.23769334-2.51976285-.59423335-2.51976285-2.0203934 0-1.1884667 1.19988707-2.0203934 2.75974026-2.0203934.83992095 0 1.55985319.23769335 1.7998306.35654002l.35996613-.23769334.35996612.11884667c-.11998871.71308002-.11998871.83192669-.11998871 1.06962003 0 .35654001 0 .59423335.11998871.8319267l-.47995483.11884667c-.11998871-.35654002-.11998871-.59423336-.23997742-.8319267-.35996612-.59423335-.95990965-.95077336-1.7998306-.95077336s-1.43986448.35654001-1.43986448.95077336.59994353.71308003 1.67984189 1.06962004l.71993225.11884667c.71993224.23769334 2.27978543.59423335 2.27978543 2.0203934 0 1.1884667-1.31987578 2.25808674-2.99971768 2.25808674-1.07989836 0-1.7998306-.35654001-2.15979672-.47538668l-.35996612.47538668-.35996612-.11884667c0-.35654001 0-.71308003 0-.95077337 0-.47538668 0-.71308002-.11998871-1.1884667z"/><path d="m17.7583286 4.12346274c0 .95077337 0 1.54500672-.4799548 2.13924007-.5999435.8319267-1.9198193.95077337-2.879729.95077337-.8399209 0-2.1597967-.11884667-2.8797289-.8319267-.4799549-.59423335-.4799549-1.1884667-.5999436-2.49578008l-.1199887-2.97116676h-1.19988704v-.35654001h2.27978544 2.3997741v.35654001h-1.3198757v1.1884667 1.66385339 1.06962004c0 .47538668 0 .95077336.3599661 1.30731337.1199887.11884667.4799548.47538669 1.4398645.47538669 1.7998306 0 1.9198193-1.06962004 1.9198193-1.42616005.1199887-.83192669.1199887-3.56540012.1199887-4.27848014h-1.1998871v-.35654001h1.5598532 1.5598532v.35654001h-1.1998871z"/><path d="m25.6775833 6.61924283h1.1998871v.35654001c-2.1597968 0-2.3997742 0-4.6795596 0v-.35654001h1.1998871v-5.70464019h-1.1998871v-.47538668h4.6795596v.47538668h-1.1998871z"/><path d="m35.3966685 6.61924283h1.3198758v.35654001c-1.6798419 0-3.2396951 0-4.7995483 0v-.35654001h1.3198758v-5.58579352c-.4799548 0-.9599096 0-1.4398645.11884667-.9599096.23769334-1.0798983.83192669-1.199887 1.30731338l-.1199887.47538668h-.4799549l.1199887-.95077337c0-.23769334 0-.47538668 0-.71308002 0-.11884667 0-.23769334 0-.59423335l.3599662-.11884667h.4799548 1.0798984 3.3596837 2.0398081.3599661l.3599661.11884667c0 .47538668-.1199887.83192669 0 2.25808674h-.4799548l-.1199887-.47538668c-.1199887-.59423336-.1199887-.8319267-.4799549-1.06962004-.3599661-.35654001-1.0798983-.35654001-1.7998306-.35654001v5.58579352"/><path d="m46.5556183 5.07423611c-.1199887-1.06962004-.1199887-1.18846671-1.6798419-1.18846671v2.73347343h.7199322c1.1998871 0 1.7998306 0 2.2797855-.23769335.5999435-.23769334.7199322-.71308002.8399209-1.42616004h.4799548l-.1199887 1.06962003c0 .59423336 0 .8319267-.1199887.95077337 0 .23769334-.1199887.23769334-.4799548.23769334-.1199887 0-.5999435 0-.7199322 0-1.6798419 0-2.2797855 0-4.1996048 0-.3599661 0-1.199887 0-2.039808 0v-.35654001h1.1998871v-5.70464019h-1.1998871v-.47538668h7.0793337v.83192669.95077337l-.4799548.11884667c-.1199887-.35654001-.1199887-.71308003-.3599661-.95077337-.4799549-.47538668-1.4398645-.47538668-2.2797855-.47538668h-.7199322v2.37693341c.7199322 0 1.0798984 0 1.3198758-.23769334.3599661-.23769334.3599661-.59423335.4799548-.95077336h.4799548c0 .59423335-.1199887 1.1884667-.1199887 1.78270005v.95077337z"/><path d="m53.7549407 4.7176961c.1199887.47538668.2399774.71308002.3599661.95077336.3599662.59423335 1.0798984.95077337 2.0398081.95077337 1.199887 0 1.7998306-.59423336 1.7998306-1.18846671 0-.71308002-.5999436-.83192669-1.4398645-1.06962003l-.7199323-.23769335c-.8399209-.23769334-2.5197628-.59423335-2.5197628-2.0203934 0-1.1884667 1.1998871-2.0203934 2.7597402-2.0203934.839921 0 1.4398645.23769335 1.7998306.35654002l.3599662-.23769334.3599661.11884667c-.1199887.71308002-.1199887.83192669-.1199887 1.06962003 0 .35654001 0 .59423335.1199887.8319267l-.4799548.11884667c-.1199887-.47538669-.1199887-.59423336-.2399775-.8319267-.3599661-.59423335-.9599096-.95077336-1.7998306-.95077336-.7199322 0-1.4398644.35654001-1.4398644.95077336s.5999435.71308003 1.6798419 1.06962004l.7199322.11884667c.7199322.23769334 2.2797854.59423335 2.2797854 2.0203934 0 1.1884667-1.3198757 2.25808674-2.9997176 2.25808674-1.0798984 0-1.7998306-.35654001-2.1597968-.47538668l-.3599661.47538668-.3599661-.11884667c0-.35654001.1199887-.71308003.1199887-.95077337 0-.47538668 0-.71308002-.1199887-1.1884667z"/></g><g><g transform="translate(23.550511 62.239485)"><path d="m.32724193.11884667h.59994353v1.54500672c.23997742-.35654001.71993224-.47538668 1.07989837-.47538668.83992094 0 1.55985319.59423335 1.55985319 1.54500671 0 .95077337-.71993225 1.54500672-1.55985319 1.54500672-.47995483 0-.83992095-.11884667-1.07989837-.47538668v.35654001h-.59994353zm1.55985319 1.42616005c-.59994354 0-1.07989836.35654001-1.07989836 1.06962003 0 .59423336.35996612 1.06962004 1.07989836 1.06962004s1.07989836-.47538668 1.07989836-1.06962004c0-.71308002-.47995483-1.06962003-1.07989836-1.06962003z"/><path d="m6.8066321 1.18846671h.59994354l-1.55985319 3.32770677c-.23997742.59423335-.47995483.71308003-.95990966.71308003-.1199887 0-.23997741 0-.35996612 0v-.47538669h.35996612c.35996612 0 .47995483-.11884667.59994354-.47538668l.1199887-.23769334-1.31987577-2.85232009h.59994353l.95990966 2.25808674z"/><path d="m10.7662594.11884667h.839921v1.54500672h2.3997741v-1.54500672h.839921v3.92194013h-.839921v-1.78270006h-2.3997741v1.78270006h-.839921z"/><path d="m16.28574.11884667h.8399209v3.92194013h-.8399209z"/><path d="m18.4455367.11884667h.8399209v3.20886011h2.3997742v.59423335h-3.2396951z"/><path d="m23.1250962.71308002h-1.4398644v-.59423335h3.7196499v.59423335h-1.4398645v3.32770678h-.839921z"/><path d="m26.1248139 2.0203934c0-1.06962003.5999436-2.0203934 2.2797855-2.0203934s2.2797854.95077337 2.2797854 2.0203934-.5999435 2.0203934-2.2797854 2.0203934c-1.6798419.11884667-2.2797855-.83192669-2.2797855-2.0203934zm3.7196499 0c0-.83192669-.4799548-1.42616005-1.4398644-1.42616005-.9599097 0-1.4398645.59423336-1.4398645 1.42616005s.4799548 1.42616005 1.4398645 1.42616005c.9599096.11884667 1.4398644-.47538669 1.4398644-1.42616005z"/><path d="m31.8842719.11884667h.9599096l2.2797854 2.97116676v-2.97116676h.839921v3.92194013h-.9599097l-2.3997741-2.97116676v2.97116676h-.839921v-3.92194013z"/></g><path d="m.59994354.23769334h-.35996613v-.11884667h.71993225v.11884667h-.35996612l.1199887.8319267h-.1199887zm1.43986448-.11884667h.23997741v.95077337h-.1199887l-.11998871-.95077337-.23997742.95077337h-.1199887l-.35996612-.8319267v.8319267h-.11998871v-.95077337h.23997741l.35996612.8319267z" transform="translate(59.994354 62.239485)"/></g></g></g></svg>