<svg height="37" viewBox="0 0 93 37" width="93" xmlns="http://www.w3.org/2000/svg"><g fill="none"><path d="m.593157.207726h36.063936v36.236375h-36.063936z" fill="#fff"/><g transform=""><g fill="#17479e"><path d="m44.6053946 7.79208355v-.36115988h.949051v-3.3708256h-2.6098902v3.3708256h.949051v.36115988h-3.5589411v-.36115988h.949051v-6.86203784h-.949051v-.36115988h3.5589411v.36115988h-.949051v3.00966572h2.6098902v-3.00966572h-.949051v-.36115988h3.5589411v.36115988h-.949051v6.86203784h.949051v.36115988z"/><path d="m48.7574925 7.79208355v-.36115988h.8304196v-4.69507852h-.8304196v-.36115989h2.4912587v5.17662504h.8304196v.36115988h-3.3216783zm.8304196-7.5843576h1.6608391v.96309303h-1.6608391z"/><path d="m52.4350649 7.79208355v-.36115988h.949051v-6.86203784h-.949051v-.36115988h2.4912588v7.22319772h.9490509v.36115988z"/><path d="m58.3666334 7.79208355c-.7117882 0-1.3049451-.36115988-1.3049451-1.20386628v-3.97275875h-.8304196v-.36115988h.8304196v-2.16695932h1.5422078v2.16695932h1.3049451v.36115988h-1.3049451v4.81546515h1.3049451v.36115988z"/><path d="m66.0776723 5.14357772c0-1.80579943-1.304945-3.00966571-3.0844156-3.00966571-1.6608391 0-3.0844155 1.08347965-3.0844155 2.88927908s1.4235764 2.88927909 3.2030469 2.88927909c1.6608392 0 2.9657842-1.08347966 2.9657842-2.76889246m-2.9657842-2.64850583c1.4235764 0 1.3049451 1.44463955 1.3049451 2.40773258v.36115988c0 .96309303 0 2.28734595-1.3049451 2.28734595-.4745255 0-.8304196-.24077326-1.0676823-.60193315-.2372627-.48154651-.2372627-1.56502617-.2372627-2.04657268 0-.8427064 0-2.40773258 1.304945-2.40773258"/><path d="m70.467033 7.79208355v-.36115988h.7117882v-3.3708256c0-.60193315 0-1.32425292-.8304196-1.32425292-.5931568 0-1.1863137.60193314-1.3049451 1.20386629-.1186313.24077325 0 .60193314 0 .8427064v2.64850583h.8304196v.36115988h-3.3216783v-.36115988h.8304196v-4.69507852h-.8304196v-.36115989h2.4912587v.8427064c.3558941-.36115988.5931569-.60193314 1.0676824-.8427064.3558941-.12038662.5931568-.24077325.9490509-.24077325.2372627 0 .4745255 0 .7117882.12038663.8304196.24077325 1.0676823.8427064 1.0676823 1.6854128v3.49121223h.8304196v.36115988z"/><path d="m48.4015984 17.5434005v2.6485058c-1.1863137 1.3242529-2.253996 1.9261861-4.0334665 1.9261861-3.0844156 0-4.6266234-2.287346-4.6266234-5.2970117 0-1.6854128.4745255-3.250439 1.7794705-4.4543053.949051-.8427064 2.1353647-1.2038662 3.3216783-1.2038662.8304196 0 1.5422078.2407732 2.1353647.7223197l.7117882-.4815465h.3558941v2.8892791h-.5931568c-.2372628-1.5650262-.5931569-2.5281192-2.4912588-2.5281192-1.1863137 0-2.0167333.4815465-2.3726274 1.6854128-.2372627.963093-.3558941 2.1669593-.3558941 3.1300523 0 .9630931 0 2.0465727.2372628 3.0096658.1186313 1.2038663.7117882 2.0465727 2.0167332 2.0465727.5931569 0 .949051-.1203867 1.3049451-.4815466.2372627-.2407732.3558941-.4815465.3558941-.8427064v-2.7688924h-1.5422078v-.6019332h4.7452548v.6019332z"/><path d="m57.4175824 21.8773191v-.4815465h-1.1863137v-4.8154652-.1203866c0-.963093-.2372627-1.5650262-1.1863137-1.926186-.5931568-.2407733-1.1863136-.3611599-1.7794705-.3611599-1.1863137 0-3.0844156.4815465-3.0844156 1.926186 0 .6019332.4745255.9630931.949051.9630931.5931568 0 .9490509-.4815466.9490509-.9630931 0-.3611599-.3558941-.7223197-.3558941-.963093 0-.3611599.8304196-.4815465 1.0676823-.4815465 1.0676824 0 1.1863137.3611599 1.1863137 1.3242529v1.4446395c-1.1863137.1203867-2.6098901.2407733-3.558941.9630931-.5931569.4815465-1.0676823 1.0834796-1.0676823 1.926186 0 1.2038663.9490509 1.8057995 2.1353646 1.8057995 1.0676823 0 1.8981019-.4815465 2.4912587-1.2038663.1186314.1203866.1186314.3611599.2372628.4815465.3558941.4815465 1.1863137.6019331 1.7794705.6019331h1.4235764zm-3.2030469-3.8523721v1.3242529c0 .6019332 0 .963093-.4745255 1.4446396-.2372627.1203866-.4745255.2407732-.8304196.2407732-.8304196 0-1.1863137-.6019331-1.1863137-1.3242529 0-1.4446396 1.3049451-1.6854128 2.4912588-1.6854128z"/><path d="m63.8236763 16.9414673c-.5931568 0-1.0676823-.3611599-1.0676823-1.0834796 0-.4815465.3558941-.7223198.3558941-.8427064 0-.1203867-.1186314-.1203867-.2372627-.1203867-.2372628 0-.7117882.6019332-.8304196.7223198-.4745255.7223198-.7117882 1.5650262-.7117882 2.5281192v3.3708256h1.4235764v.4815465h-4.8638861v-.4815465h1.1863137v-6.6212646h-1.1863137v-.4815465h3.4403097v1.3242529c.5931568-.8427064 1.0676823-1.5650261 2.253996-1.5650261.8304196 0 1.5422078.6019331 1.5422078 1.4446395-.1186314.8427064-.5931569 1.3242529-1.3049451 1.3242529"/><path d="m74.5004995 21.8773191v-.4815465h-1.1863137v-10.1124768h-3.4403097v.4815465h1.1863137v3.6115989c-.5931568-.7223198-1.304945-1.2038663-2.253996-1.2038663-.4745255 0-.9490509.1203866-1.4235764.3611599-1.3049451.7223197-2.0167333 2.1669593-2.0167333 3.6115988 0 2.1669593 1.3049451 3.8523721 3.4403097 3.8523721 1.0676823 0 1.5422078-.4815465 2.1353646-1.3242529v1.0834797h3.5589411zm-5.1011489-7.1028111c.5931569 0 1.1863137.4815465 1.5422078 1.0834797.3558941.6019331.3558941 1.5650261.3558941 2.2873459 0 .4815465 0 1.4446396-.2372627 1.9261861-.2372627.6019331-.9490509 1.3242529-1.6608392 1.3242529-1.4235764 0-1.5422077-2.287346-1.5422077-3.3708256-.1186314-.963093 0-3.250439 1.5422077-3.250439z"/><path d="m81.9742757 17.6637871c-.1186313-.963093-.2372627-1.6854128-.9490509-2.4077326-.7117882-.7223197-1.6608392-1.0834796-2.6098901-1.0834796-2.253996 0-3.9148352 1.6854128-3.9148352 3.9727587 0 2.4077326 1.7794705 3.9727588 4.0334665 3.9727588 1.6608392 0 2.6098901-.8427064 3.3216784-2.287346l-.4745255-.2407732c-.5931569 1.0834796-1.4235764 1.926186-2.7285215 1.926186-1.6608392 0-1.7794705-1.5650261-1.7794705-3.0096657v-.963093h5.1011488zm-2.253996-.4815465h-2.7285215c0-1.2038663-.1186313-2.5281192 1.4235765-2.5281192.9490509 0 1.304945.6019331 1.304945 1.4446395z"/><path d="m87.7872128 21.8773191v-.4815465h.9490509v-4.5746919c0-.8427064 0-1.8057994-1.0676823-1.8057994-.8304196 0-1.6608391.8427064-1.8981019 1.6854128-.1186313.3611599-.1186313.7223197-.1186313 1.0834796v3.6115989h1.1863136v.4815465h-4.507992v-.4815465h1.1863137v-6.500878h-1.1863137v-.4815465h3.4403097v1.2038663c.4745255-.6019331.7117882-.8427064 1.4235764-1.0834796.4745255-.1203867.8304196-.2407733 1.3049451-.2407733.3558941 0 .7117882 0 .9490509.1203866 1.1863137.3611599 1.5422078 1.2038663 1.5422078 2.287346v4.8154651h1.1863137v.4815465h-4.3893606z"/><path d="m40.3346653 36.5644878v-.4815465h1.1863137v-9.390157h-1.1863137v-.6019332h4.7452548v.6019332h-1.1863137v9.390157h1.1863137v.4815465z"/><path d="m51.0114885 36.5644878v-.4815465h.949051v-4.5746919c0-.8427064 0-1.8057994-1.0676824-1.8057994-.8304195 0-1.6608391.8427064-1.8981019 1.6854128-.1186313.3611599-.1186313.7223197-.1186313 1.0834796v3.6115989h1.1863137v.4815465h-4.507992v-.4815465h1.1863136v-6.500878h-1.1863136v-.4815465h3.4403096v1.2038663c.4745255-.6019331.7117883-.8427064 1.4235765-1.0834796.4745254-.1203867.8304195-.2407733 1.304945-.2407733.3558941 0 .7117882 0 .949051.1203866 1.1863137.3611599 1.5422078 1.2038663 1.5422078 2.287346v4.8154651h1.1863137v.4815465h-4.3893607z"/><path d="m61.2137862 36.5644878v-.4815465h.949051v-4.5746919c0-.8427064 0-1.8057994-1.0676824-1.8057994-.8304195 0-1.6608391.8427064-1.8981019 1.6854128-.1186313.3611599-.1186313.7223197-.1186313 1.0834796v3.6115989h1.1863137v.4815465h-4.507992v-.4815465h1.1863136v-6.500878h-1.1863136v-.4815465h3.4403096v1.2038663c.4745255-.6019331.7117883-.8427064 1.4235765-1.0834796.4745254-.1203867.8304196-.2407733 1.304945-.2407733.3558941 0 .7117882 0 1.0676823.1203866 1.1863137.3611599 1.5422078 1.2038663 1.5422078 2.287346v4.8154651h1.1863137v.4815465h-4.507992z"/><path d="m66.1963037 30.1839965v-.4815465h.3558941c.1186314 0 .3558941 0 .3558941.2407732 0 .2407733-.2372627.2407733-.4745255.2407733zm0 .1203866h.2372627l.3558941.6019332h.2372628l-.4745255-.6019332c.2372627 0 .4745255-.1203866.4745255-.3611599 0-.2407732-.1186314-.3611599-.4745255-.3611599h-.5931568v1.4446396h.2372627zm.2372627 1.2038663c.7117882 0 1.1863137-.6019331 1.1863137-1.2038663 0-.7223198-.5931568-1.2038663-1.1863137-1.2038663-.5931568 0-1.1863137.6019332-1.1863137 1.2038663 0 .6019332.4745255 1.2038663 1.1863137 1.2038663zm0-.2407733c-.5931568 0-1.0676823-.4815465-1.0676823-1.0834796 0-.6019332.4745255-1.0834797 1.0676823-1.0834797.5931569 0 1.0676824.4815465 1.0676824 1.0834797 0 .7223198-.4745255 1.0834796-1.0676824 1.0834796z"/></g><path d="m.593157.207726h36.063936v36.236375h-36.063936z" fill="#bf2f38"/><path d="m7.23651349 6.34744401c-.47452548 0-.83041958.36115989-.83041958.8427064 0 .48154652.3558941.8427064.83041958.8427064.47452547 0 .83041958-.36115988.83041958-.8427064.11863137-.48154651-.35589411-.8427064-.83041958-.8427064" fill="#fff"/><path d="m14.473027 5.38435098c-2.4912588-2.28734594-4.1520979-2.28734594-7.94830173-2.5281192 0 0-1.89810189-.24077326-3.20304695-.48154652-.23726274 0-.71178821-.12038662-.71178821 0-.11863137.12038663-.11863137.48154652 0 .72231978.23726274 1.44463954.47452547 3.25043897.47452547 3.25043897.23726274 3.73198549.23726274 5.53778489 2.49125875 8.06590409 0 0 6.05019977 6.500878 10.67682317 1.8057995 0 0 .3558941-.3611599.2372627-.7223198-.1186313-.4815465-3.3216783-3.6115989-4.507992-4.8154652-1.1863137-1.32425287-2.60989008-2.40773253-2.96578418-2.52811916 0 0-.11863137 0-.23726274 0-.23726274.12038663-.47452548.36115989-.47452548.36115989s-.11863136.12038662 0 .36115988c.23726274.48154652.94905095 1.44463959 2.4912587 3.00966569 1.6608392 1.6854128 3.7962038 3.6115989 3.7962038 3.6115989-2.7285214 2.1669593-6.88061934-1.3242529-6.88061934-1.3242529-2.72852148-2.287346-3.44030969-6.74165123-3.32167832-9.99209021 3.20304695-.24077325 7.59240756.60193315 9.84640356 3.37082561 0 0 2.253996 3.0096657 1.7794706 5.6581715v.2407733c.3558941.6019331 1.1863137.6019331 1.6608391.1203866 0 0 0 0 .1186314-.1203866.8304196-4.09314537-3.3216783-8.06590412-3.3216783-8.06590412" fill="#fff"/><path d="m30.1323676 7.06976378c0-.48154651-.3558941-.8427064-.8304195-.8427064-.4745255 0-.8304196.36115989-.8304196.8427064 0 .48154652.3558941.8427064.8304196.8427064.4745254.12038663.8304195-.36115988.8304195-.8427064" fill="#fff"/><path d="m31.0814186 14.4133481c2.253996-2.5281192 2.253996-4.213532 2.4912587-8.06590409 0 0 .2372628-1.80579943.4745255-3.25043897 0-.24077326.1186314-.72231978 0-.72231978-.1186314-.12038662-.4745255-.12038662-.7117882 0-1.4235764.24077326-3.203047.48154652-3.203047.48154652-3.6775724.24077326-5.4570429.24077326-7.9483017 2.5281192 0 0-6.4060939 6.13971802-1.7794705 10.95518322 0 0 .3558941.3611599.7117882.2407732.4745255-.1203866 3.5589411-3.3708256 4.7452548-4.5746918 1.304945-1.2038663 2.3726273-2.64850587 2.4912587-3.00966576 0 0 0-.12038663 0-.24077326-.1186314-.24077325-.3558941-.48154651-.3558941-.48154651s-.1186314-.12038663-.3558941 0c-.4745255.24077326-1.4235764.96309303-2.9657842 2.52811923-1.6608392 1.6854128-3.5589411 3.8523721-3.5589411 3.8523721-2.1353646-2.7688925 1.3049451-6.98242447 1.3049451-6.98242447 2.253996-2.76889246 6.6433566-3.49121224 9.8464036-3.37082561.2372627 3.25043898-.5931569 7.70474428-3.3216784 9.99209018 0 0-2.9657842 2.2873459-5.5756743 1.8057994-.1186313 0-.1186313 0-.2372627 0-.5931569.3611599-.5931569 1.2038663-.1186314 1.6854128 0 0 .1186314 0 .1186314.1203867 4.0334665.7223197 7.9483017-3.4912123 7.9483017-3.4912123" fill="#fff"/><path d="m29.4205794 30.3043831c.4745255 0 .8304196-.3611599.8304196-.8427064s-.3558941-.8427064-.8304196-.8427064-.8304196.3611599-.8304196.8427064c-.1186313.4815465.3558941.8427064.8304196.8427064" fill="#fff"/><path d="m22.1840659 31.2674761c2.4912588 2.287346 4.1520979 2.287346 7.9483017 2.5281192 0 0 1.7794706.2407733 3.203047.4815466.2372627 0 .7117882.1203866.7117882 0 .1186314-.1203867.1186314-.4815466 0-.7223198-.2372627-1.4446396-.4745255-3.250439-.4745255-3.250439-.2372627-3.7319855-.2372627-5.5377849-2.4912587-8.0659041 0 0-6.0501998-6.500878-10.6768232-1.8057994 0 0-.3558941.3611599-.2372627.7223197.2372627.4815466 3.3216783 3.6115989 4.507992 4.8154652 1.1863137 1.3242529 2.6098901 2.4077326 2.9657842 2.5281192h.2372627c.2372628 0 .4745255-.3611599.4745255-.3611599s.1186314-.1203866 0-.3611599c-.2372627-.4815465-.9490509-1.4446395-2.4912587-3.0096657-1.6608392-1.6854128-3.7962038-3.6115989-3.7962038-3.6115989 2.7285214-2.1669593 6.8806193 1.324253 6.8806193 1.324253 2.7285215 2.2873459 3.4403097 6.7416512 3.3216784 9.9920901-3.203047.2407733-7.5924076-.6019331-9.8464036-3.3708256 0 0-2.253996-3.0096657-1.7794706-5.6581715 0-.1203866 0-.1203866 0-.2407733-.3558941-.6019331-1.1863136-.6019331-1.6608391-.1203866 0 0 0 .1203866-.1186314.1203866-.8304196 4.0931454 3.3216783 8.0659041 3.3216783 8.0659041" fill="#fff"/><path d="m6.52472527 29.5820633c0 .4815466.35589411.8427064.83041959.8427064.47452547 0 .83041958-.3611598.83041958-.8427064 0-.4815465-.35589411-.8427064-.83041958-.8427064-.47452548-.1203866-.83041959.3611599-.83041959.8427064" fill="#fff"/><path d="m5.57567433 22.238479c-2.25399601 2.5281192-2.25399601 4.213532-2.49125875 8.0659041 0 0-.23726273 1.8057994-.47452547 3.250439 0 .2407732-.11863137.7223198 0 .7223198.11863137.1203866.47452547.1203866.71178821 0 1.42357643-.2407733 3.20304695-.4815466 3.20304695-.4815466 3.67757243-.2407732 5.45704293-.2407732 7.94830173-2.5281192 0 0 6.4060939-6.139718 1.7794705-10.9551832 0 0-.3558941-.3611598-.7117882-.2407732-.4745255.1203866-3.5589411 3.3708256-4.7452548 4.5746919-1.30494501 1.2038663-2.37262733 2.6485058-2.4912587 3.0096657v.2407732c.11863137.2407733.35589411.4815466.35589411.4815466s.11863137.1203866.35589411 0c.47452547-.2407733 1.42357638-.9630931 2.96578418-2.5281192 1.6608392-1.6854128 3.5589411-3.8523722 3.5589411-3.8523722 2.1353646 2.7688925-1.3049451 6.9824245-1.3049451 6.9824245-2.253996 2.7688925-6.64335661 3.6115989-9.84640356 3.3708256-.23726274-3.250439.59315684-7.7047442 3.32167832-9.9920902 0 0 2.96578424-2.2873459 5.57567434-1.8057994h.2372627c.5931569-.3611599.5931569-1.2038663.1186314-1.6854128 0 0-.1186314 0-.1186314-.1203866-4.03346651-.7223198-7.94830167 3.4912122-7.94830167 3.4912122" fill="#fff"/></g></g></svg>