<svg height="51" viewBox="0 0 79 51" width="79" xmlns="http://www.w3.org/2000/svg"><g fill="none" fill-rule="evenodd" transform=""><path d="m.47815821 38.7105751v-26.7717996l38.96989369-11.45640073 38.9698938 11.45640073v26.7717996l-38.9698938 11.5769945z" fill="#c60651"/><path d="m2.62987013 37.1428571v-23.6363636l36.81818177-10.85343228 36.8181819 10.85343228v23.6363636l-36.8181819 10.8534323z" fill="#fff"/><path d="m39.4480519 3.25602968-36.22048401 10.73283862v22.6716141l36.22048401 10.7328386 36.2204841-10.7328386v-22.6716141z" fill="#004990"/><path d="m48.5330579 19.174397c-1.3149351-.2411874-2.0321724.8441559-2.0321724.8441559l-.1195396-.7235622h-1.5540141l-1.4344747 4.5825603c-.4781582 1.0853432-1.314935 1.8089054-2.0321723 2.2912802-.7172373.361781-.5976978-.7235622-.2390791-1.567718.3586186-.8441559 1.0758559-2.7736549 1.4344746-3.9795919.2390791-1.2059369-.4781582-1.8089053-1.4344746-1.4471243-1.075856.2411874-2.3907911 2.0500928-2.3907911 2.0500928.2390791-2.0500928-.7172373-2.1706865-1.4344746-2.0500928-.7172373.2411874-1.9126328 1.3265306-1.9126328 1.3265306.1195396-.361781.1195396-1.4471243.1195396-1.4471243h-1.6735538s-1.314935 4.4619666-1.5540141 4.9443414c-.1195396.2411874-1.4344746 2.0500928-2.0321724 1.9294991s-.3586187-.9647496 0-1.8089054c.2390791-.8441558 1.5540142-5.0649351 1.5540142-5.0649351h-1.9126329l-.2390791.4823748c-.3586186-.8441558-2.1517119-.9647495-3.5861865.4823748s-1.9126328 3.497217-2.0321724 4.8237477c-.1195395 1.3265306 0 2.1706864 1.3149351 2.1706864 1.1953955 0 2.6298701-1.6883117 2.6298701-1.6883117 0 1.2059369.2390791 1.8089054 1.3149351 1.8089054 1.0758559 0 2.390791-1.4471243 2.390791-1.4471243l-.4781582 1.2059369h2.0321724c.3586186-1.3265306 1.314935-3.6178107 1.6735537-4.5825603.4781582-.9647495.9563164-1.6883117 1.4344746-1.8089054.4781582-.2411873.7172373.2411874.5976978.6029685-.1195396.3617811-1.7930933 5.9090909-1.7930933 5.9090909h1.7930933s.9563164-2.6530612 1.4344746-3.8589981c.4781582-1.205937 1.1953955-2.2912802 1.7930933-2.7736549.5976977-.4823748.4781582.1205936.3586186.6029684-.1195395.4823748-1.4344746 3.9795918-1.5540142 4.5825603-.1195395.6029685.1195396 1.6883117 1.1953956 1.6883117 1.0758559 0 2.7494096-1.6883117 2.7494096-1.6883117l-1.314935 4.4619666h1.9126328l1.075856-3.3766234c.2390791.2411874.2390791.3617811 1.314935.4823748.9563164.1205937 2.6298702-1.4471243 3.3471075-3.135436.4781582-1.4471243.7172373-4.5825603-.7172373-4.8237477zm-19.724026 3.0148423c-.3586187 1.0853433-.8367769 2.1706865-1.4344746 2.7736549-.5976978.6029685-1.1953956.9647496-1.5540142.8441559-.3586187-.1205937-.1195396-1.4471243.2390791-2.5324675.3586187-1.0853433 1.075856-2.4118739 1.5540142-2.773655.4781582-.361781 1.0758559-.361781 1.1953955-.361781.2390791.1205937.3586186 1.0853432 0 2.0500927zm18.4090909 1.4471243c-.7172373 1.6883117-1.7930933 2.773655-2.1517119 2.6530613-.3586187-.1205937-.3586187-1.4471243.3586186-3.2560297s1.5540142-3.0148423 2.0321724-2.7736549c.3586186.1205937.4781582 1.8089053-.2390791 3.3766233zm25.8205431-2.7736549c-.4781582.1205937-.3586187.3617811-.2390791 2.0500928 0 1.6883117-1.6735537 4.2207792-2.7494097 5.064935-1.075856.8441559-2.6298701 1.4471244-3.5861865.4823748-.9563165-.9647495-.1195396-3.3766234.7172373-5.3061224.7172373-1.9294991.8367768-2.5324676.7172373-3.2560297-.1195396-.7235622-1.1953955-.7235622-1.7930933-.4823748-.4781582.2411874-1.7930933 1.3265306-1.7930933 1.3265306l.1195396-1.2059369h-1.6735537c-.1195396.4823748-.7172373 1.4471243-1.1953956 2.0500928-.5976977.6029684-1.1953955.7235621-1.1953955.7235621s0-.2411874 0-1.2059369-.8367768-1.6883117-1.5540141-1.8089054-2.151712.1205937-3.2275679 1.6883117c-1.1953955 1.567718-1.4344746 3.6178108-1.4344746 3.6178108-.2390791.4823747-1.1953955 1.4471243-1.6735538 1.6883117-.4781582.361781-.8367768.4823747-.4781582-1.3265307.3586187-1.8089053 1.5540142-4.9443413 1.5540142-4.9443413h1.5540142l.1195395-.6029685h-1.5540141l.9563164-3.0148423-1.9126329.2411874-.8367768 2.7736549h-1.4344746v.6029685h1.314935s-.5976977 1.929499-.7172373 2.2912801c-.1195395.3617811-1.0758559 2.6530612-.9563164 4.2207792.2390791 1.6883117 1.7930933 1.0853433 2.5103306.7235622s1.7930933-1.6883117 1.7930933-1.6883117c.2390791 1.9294991 2.0321723 2.4118738 3.7057261 1.567718 1.6735537-.8441558 2.1517119-3.8589981 2.1517119-3.8589981.5976977 0 1.6735537-.9647496 1.6735537-.9647496l-1.6735537 5.1855288h1.9126328c.8367769-3.2560297 2.0321724-5.3061225 2.6298701-5.9090909.4781582-.7235622 1.075856-.9647496 1.1953955-.7235622.2390792.2411874-.1195395.9647496-.7172373 2.2912802-.5976977 1.4471243-1.0758559 2.8942486-.7172373 4.4619666.2390791 1.567718 1.075856 2.1706864 2.7494097 2.2912801s3.8252657-1.0853432 5.2597403-3.135436c1.314935-2.0500927 1.314935-3.3766233 1.314935-4.3413729-.1195395-1.2059369-.3586186-1.6883117-.8367768-1.567718zm-14.8229044 4.3413729c-.3586186.8441559-.9563164 1.567718-1.5540142 1.3265306-.5976977-.2411873-.4781582-2.0500927-.1195395-3.1354359.2390791-1.0853433.9563164-2.0500928.9563164-2.0500928s.1195396 1.0853432 1.4344746 1.8089054c0 0-.2390791 1.3265306-.7172373 2.0500927zm.9563164-2.8942486s-.4781582-.1205937-.8367768-.9647495c-.2390791-.8441559-.1195396-1.2059369-.1195396-1.2059369s.3586187-.4823748.8367769-.3617811c.4781582.3617811.3586186 1.9294991.1195395 2.5324675zm-43.7514758-.8441558h-1.7930932v.8441558h1.5540141s-.5976977 2.7736549-1.6735537 4.8237477c-.9563164 2.0500928-2.2712515 3.7384045-4.06434474 3.4972171-1.79309327-.2411874-3.46664699-1.9294991-3.34710744-4.4619666 0-2.4118739.11953955-3.3766234 1.43447462-4.8237477.4781582-.6029685.4781582-1.3265306-.35861866-1.0853432-.83677686.2411873-1.43447461.7235621-1.79309327 2.4118738-.35861865 1.567718-.59769776 4.1001855 1.07585596 6.9944341 1.31493507 2.2912802 4.66204253 2.2912802 6.21605663.8441559 1.1953956-1.0853432 2.5103306-2.8942486 3.3471075-4.8237477.8367768-2.0500928 1.1953955-3.2560297 1.1953955-3.2560297h3.1080283s-2.9884888 7.2356215.8367769 9.1651206c0 0-.7172373-1.8089054-.2390791-3.8589981.4781582-2.0500928 1.4344746-4.9443414 1.6735537-5.3061225h.4781582c.1195396 0 .3586187.1205937.4781582 0 .1195396-.2411874.1195396-.6029684.1195396-.6029684l-.8367769-.1205937s.5976978-2.1706865 1.1953955-3.4972171c.5976978-1.3265306 1.3149351-2.5324675 2.3907911-3.6178108 0 0-.8367769-.361781-2.6298702.9647496-1.6735537 1.3265306-3.3471074 6.1502783-3.3471074 6.1502783h-3.1080284s.4781583-2.0500928 1.3149351-3.7384045c.8367769-1.6883117 1.5540142-2.7736549 1.5540142-2.7736549s-3.3471075.8441558-3.8252657.9647495-2.6298701.6029685-3.3471074.9647496c-.8367769.361781-1.1953955 1.4471243-.8367769 1.6883117.2390791.1205936.9563164-.3617811 1.4344747-.7235622.5976977-.3617811 2.9884887-1.6883117 4.3034238-1.6883117.4781582-.2411874-1.1953955 1.3265306-2.5103306 5.0649351z" fill="#fff"/><g fill-rule="nonzero"><g fill="#c60651" transform="translate(74.865913 41.001855)"><path d="m.8026227 1.567718v-1.44712431h-.59769775v-.12059369h1.31493506v.24118738h-.59769776v1.44712431h-.11953955z"/><path d="m1.87847866 0h.35861866l.4781582 1.32653061.47815821-1.32653061h.35861865v1.567718h-.2390791v-1.44712431l-.4781582 1.44712431h-.23907911l-.4781582-1.44712431v1.44712431h-.23907911z"/></g><g fill="#fff" transform="translate(25.103306 33.316257)"><path d="m0 .20878908h.47815821v1.20593692c.11953955-.24118739.4781582-.36178108.83677685-.36178108.71723731 0 1.31493507.48237477 1.31493507 1.20593692 0 .84415585-.59769776 1.20593692-1.31493507 1.20593692-.35861865 0-.7172373-.12059369-.83677685-.36178107v.24118738h-.47815821zm1.19539551 1.20593692c-.4781582 0-.83677686.36178108-.83677686.84415584 0 .48237477.23907911.84415585.83677686.84415585.59769776 0 .83677686-.36178108.83677686-.84415585 0-.48237476-.2390791-.84415584-.83677686-.84415584z"/><path d="m5.25974026 1.05294492h.47815821l-1.19539552 2.77365492c-.2390791.48237477-.35861865.60296846-.83677686.60296846-.11953955 0-.2390791 0-.35861865 0v-.36178108h.2390791c.2390791 0 .35861865 0 .47815821-.36178107l.11953955-.24118739-1.07585596-2.41187384h.4781582l.83677686 1.80890538z"/><path d="m8.3677686.20878908h.7172373v1.20593692h1.9126328v-1.20593692h.7172373v3.13543599h-.7172373v-1.4471243h-1.9126328v1.4471243h-.7172373z"/><path d="m12.790732.20878908h.7172373v3.13543599h-.7172373z"/><path d="m14.5838253.20878908h.7172373v2.65306122h1.9126328v.48237477h-2.6298701z"/><path d="m18.2895514.81175754h-1.1953956v-.48237477h2.9884888v.48237477h-1.1953955v2.65306122h-.7172373v-2.65306122z"/><path d="m20.7998819 1.89710077c0-.84415585.4781582-1.68831169 1.9126329-1.68831169 1.314935 0 1.9126328.84415584 1.9126328 1.68831169 0 .84415584-.4781582 1.68831169-1.9126328 1.68831169-1.4344747 0-1.9126329-.84415585-1.9126329-1.68831169zm2.9884888 0c0-.72356216-.4781582-1.20593692-1.1953955-1.20593692s-1.1953955.48237476-1.1953955 1.20593692c0 .72356215.4781582 1.20593692 1.1953955 1.20593692.8367769 0 1.1953955-.60296846 1.1953955-1.20593692z"/><path d="m25.4619244.20878908h.7172373l1.9126329 2.41187384v-2.41187384h.5976977v3.13543599h-.7172373l-1.9126328-2.41187384v2.41187384h-.5976978z"/></g></g></g></svg>