<?xml version="1.0" encoding="utf-8"?>
<!-- Generator: Adobe Illustrator 23.0.1, SVG Export Plug-In . SVG Version: 6.00 Build 0)  -->
<svg version="1.1" id="Layer_1" xmlns="http://www.w3.org/2000/svg" xmlns:xlink="http://www.w3.org/1999/xlink" x="0px" y="0px"
	 viewBox="0 0 360 360" style="enable-background:new 0 0 360 360;" xml:space="preserve">
<g>
	<path d="M322,203.8c-1.4,0-2.5-1.1-2.5-2.5c0-1.4,1.1-2.5,2.5-2.5c1.4,0,2.5,1.1,2.5,2.5C324.5,202.7,323.3,203.8,322,203.8
		 M322,199.3c-1.2,0-2.1,0.9-2.1,2.1c0,1.2,0.9,2.1,2.1,2.1c1.2,0,2.1-0.9,2.1-2.1C324.1,200.2,323.1,199.3,322,199.3 M322.7,202.7
		l-1.1-1.3v1.3h-0.4v-2.9h1c0.5,0,0.9,0.4,0.9,0.9c0,0.5-0.4,0.8-0.8,0.8l1.1,1.2H322.7z M322,200.3h-0.5v0.9h0.5
		c0.3,0,0.5-0.2,0.5-0.5C322.5,200.5,322.3,200.3,322,200.3"/>
	<path d="M196.3,222h2.4l1.7-4.3h11.3l1.8,4.3h2.4l-9.8-23.4L196.3,222z M206.1,203.7l4.8,12.1h-9.7L206.1,203.7z M224.3,222.4
		c3.3,0,6-2.5,6-6.1c0-3-1.9-5-4.9-6.8c-2.6-1.5-4.3-2.4-4.3-5.1c0-2.2,1.6-3.6,3.3-3.6c1.5,0,2.7,0.6,4.1,1.7l1.3-1.6
		c-1.5-1.4-3.3-2.2-5.5-2.2c-3.1,0-5.5,2.3-5.5,5.6c0,3.3,2.1,5,5.2,6.8c2.7,1.6,4,2.7,4,5.1c0,2.4-1.4,3.9-3.6,3.9
		c-2,0-3.3-0.7-4.6-1.9l-1.3,1.6C220.2,221.6,221.9,222.4,224.3,222.4 M246.1,201.3v-2h-11.9v2h4.9V222h2.2v-20.8H246.1z
		 M271.1,210.7c0-6.8-5-11.8-11.8-11.8c-6.6,0-11.6,5-11.6,11.7c0,6.7,5.1,11.8,11.7,11.8C266,222.4,271.1,217.3,271.1,210.7
		 M268.8,210.5c0,6.5-4.7,9.8-9.4,9.8c-5.2,0-9.4-4.4-9.4-9.7c0-5.7,3.8-9.6,9.3-9.6C264.9,201,268.8,205,268.8,210.5 M287.6,205.6
		c0,3-2,5-5.2,5h-3.8c0.4,0.4,9.9,11.3,9.9,11.5h2.7c-0.5-0.6-8.8-10-8.8-10h1.2c3.4,0,6.3-2.9,6.3-6.3c0-3.8-2.9-6.5-6.9-6.5h-7.2
		V222h2.2v-20.8h4.5C286,201.3,287.6,203.8,287.6,205.6 M298,199.3h-2.2V222h2.2V199.3z M302.1,222h2.4l1.7-4.3h11.3l1.8,4.3h2.4
		l-9.8-23.4L302.1,222z M311.9,203.7l4.8,12.1H307L311.9,203.7z"/>
	<path d="M45.6,222.3l6-14.5l6,14.5l9.2-23.4h-2.4l-6.9,18l-5.9-14.1L45.8,217l-7-18.1h-2.4L45.6,222.3z M65.5,221.7h2.4l1.7-4.3H81
		l1.8,4.3h2.4l-9.8-23.4L65.5,221.7z M75.3,203.4l4.8,12.1h-9.7L75.3,203.4z M100.5,221.7v-2h-9.2v-20.8h-2.2v22.8H100.5z
		 M110.3,221.7c7.1,0,12.1-4.7,12.1-11.5c0-6.8-4.9-11.2-12-11.2h-5.8v22.8H110.3 M110.7,200.9c5.5,0,9.5,3.8,9.5,9.3
		c0,5.3-3.6,9.6-9.8,9.6h-3.6v-18.9H110.7 M149.4,210.3c0-6.8-5-11.8-11.8-11.8c-6.6,0-11.6,5-11.6,11.7c0,6.7,5.1,11.8,11.7,11.8
		C144.2,222.1,149.4,216.9,149.4,210.3 M147,210.2c0,6.5-4.7,9.8-9.4,9.8c-5.2,0-9.4-4.4-9.4-9.7c0-5.7,3.8-9.6,9.3-9.6
		C143.1,200.7,147,204.7,147,210.2 M165.9,205.3c0,3-2,5-5.2,5h-3.8c0.4,0.4,9.8,11.3,9.9,11.5h2.7c-0.5-0.6-8.8-10-8.8-10h1.2
		c3.4,0,6.3-2.9,6.3-6.3c0-3.8-2.9-6.5-6.9-6.5h-7.2v22.8h2.2v-20.8h4.5C164.3,200.9,165.9,203.5,165.9,205.3 M186.4,200.9v-2h-12.2
		v22.8h2.2v-9.9h7.7v-2h-7.7v-8.9H186.4z"/>
	<path d="M203.1,137.4l10-21.2h-5.8v-1h13.3v1h-5.3l-11.1,23.6L203.1,137.4z M148,115.2h-13.3v1h2.4l27.6,58.6l11.5-23.8l11.2,23.8
		l11.4-23.8l10.5,23h-2v1h13.3v-1h-2.4l-27.7-58.7l-10.2,21.6l1.1,2.3l6.1-12.9l7.4,16.3h-11.9l0.8,1.7h11.9l0.7,1.6h-11.9l0.8,1.7
		h11.8l0.4,0.8l-7.3,15.2l-21.7-47.5h2.2v-1h-13.3v1h2.4l15,32.4l-7.3,15.1L146,116.1h1.9V115.2z M190,121.2l1-2l25.3,54.8h-1.8
		L190,121.2z M164.9,116.1h1.8l22.8,49.2l-1,2L164.9,116.1z M166.9,165.4l-1,2l-23.7-51.2h1.8L166.9,165.4z"/>
	<g>
		<polygon points="120,245.4 120,234 118.9,234 118.9,239.1 112.8,239.1 112.8,234 111.7,234 111.7,245.4 112.8,245.4 112.8,240.1 
			118.9,240.1 118.9,245.4 		"/>
		<path d="M134.4,239.7c0,3.3-2.6,5.9-5.9,5.9c-3.3,0-5.9-2.6-5.9-5.9c0-3.4,2.5-5.9,5.8-5.9C131.9,233.8,134.4,236.3,134.4,239.7
			 M133.3,239.6c0-2.8-2-4.8-4.8-4.8c-2.8,0-4.7,2-4.7,4.8c0,2.7,2.1,4.9,4.7,4.9C130.9,244.5,133.3,242.9,133.3,239.6"/>
		<polygon points="141.5,235 141.5,234 135.5,234 135.5,235 137.9,235 137.9,245.4 139,245.4 139,235 		"/>
		<polygon points="150,245.4 150,244.4 144.8,244.4 144.8,240.4 149.6,240.4 149.6,239.4 144.8,239.4 144.8,235 149.7,235 
			149.7,234 143.7,234 143.7,245.4 		"/>
		<polygon points="158.5,245.4 158.5,244.4 153.9,244.4 153.9,234 152.8,234 152.8,245.4 		"/>
		<path d="M163,245.6c1.7,0,3-1.3,3-3c0-1.5-0.9-2.5-2.5-3.4c-1.3-0.8-2.2-1.2-2.2-2.6c0-1.1,0.8-1.8,1.6-1.8c0.8,0,1.4,0.3,2,0.9
			l0.7-0.8c-0.8-0.7-1.7-1.1-2.7-1.1c-1.6,0-2.7,1.1-2.7,2.8c0,1.6,1.1,2.5,2.6,3.4c1.3,0.8,2,1.3,2,2.6c0,1.2-0.7,2-1.8,2
			c-1,0-1.6-0.3-2.3-0.9l-0.7,0.8C160.9,245.2,161.8,245.6,163,245.6"/>
		<path d="M179.6,245.4l-1.1-1.2c-1,0.8-2.1,1.4-3.5,1.4c-1.8,0-3.2-1.3-3.2-3c0-1.5,1.1-2.7,2.3-3.5l-0.7-0.8
			c-0.5-0.6-0.9-1.3-0.9-2.1c0-1.4,1.2-2.5,2.6-2.5c1.5,0,2.6,1.1,2.6,2.4c0,1.3-1.1,2.3-2.1,3l3.1,3.5c0.4-0.4,0.7-0.8,1-1.2
			l0.7,0.7c-0.3,0.4-0.7,0.9-1.1,1.3l1.7,1.9H179.6z M175.2,234.7c-0.8,0-1.5,0.6-1.5,1.5c0,0.6,0.2,1.1,0.8,1.6l0.6,0.7
			c0.7-0.5,1.7-1.3,1.7-2.3C176.7,235.3,176.1,234.7,175.2,234.7 M174.8,239.8c-0.9,0.7-1.8,1.5-1.8,2.7c0,1.2,0.9,2.1,2.1,2.1
			c1.1,0,2.1-0.5,2.9-1.2L174.8,239.8z"/>
		<path d="M192.8,237.1c0,1.5-1,2.5-2.6,2.5h-1.9c0.2,0.2,4.9,5.7,5,5.8h1.4c-0.2-0.3-4.4-5-4.4-5h0.6c1.7,0,3.1-1.4,3.1-3.1
			c0-1.9-1.4-3.3-3.4-3.3h-3.6v11.4h1.1V235h2.2C192,235,192.8,236.2,192.8,237.1"/>
		<polygon points="203.2,245.4 203.2,244.4 197.9,244.4 197.9,240.4 202.7,240.4 202.7,239.4 197.9,239.4 197.9,235 202.9,235 
			202.9,234 196.8,234 196.8,245.4 		"/>
		<path d="M208.2,245.6c1.7,0,3-1.3,3-3c0-1.5-0.9-2.5-2.5-3.4c-1.3-0.8-2.2-1.2-2.2-2.6c0-1.1,0.8-1.8,1.6-1.8
			c0.8,0,1.4,0.3,2.1,0.9l0.7-0.8c-0.8-0.7-1.7-1.1-2.7-1.1c-1.6,0-2.7,1.1-2.7,2.8c0,1.6,1.1,2.5,2.6,3.4c1.3,0.8,2,1.3,2,2.6
			c0,1.2-0.7,2-1.8,2c-1,0-1.6-0.3-2.3-0.9l-0.7,0.8C206.1,245.2,206.9,245.6,208.2,245.6"/>
		<path d="M224.6,239.7c0,3.3-2.6,5.9-5.9,5.9c-3.4,0-5.9-2.6-5.9-5.9c0-3.4,2.5-5.9,5.8-5.9C222.1,233.8,224.6,236.3,224.6,239.7
			 M223.4,239.6c0-2.8-2-4.8-4.8-4.8c-2.8,0-4.7,2-4.7,4.8c0,2.7,2.1,4.9,4.7,4.9C221.1,244.5,223.4,242.9,223.4,239.6"/>
		<path d="M233.2,237.1c0,1.5-1,2.5-2.6,2.5h-1.9c0.2,0.2,4.9,5.7,5,5.8h1.4c-0.3-0.3-4.4-5-4.4-5h0.6c1.7,0,3.1-1.4,3.1-3.1
			c0-1.9-1.4-3.3-3.4-3.3h-3.6v11.4h1.1V235h2.2C232.4,235,233.2,236.2,233.2,237.1"/>
		<polygon points="241.8,235 241.8,234 235.9,234 235.9,235 238.3,235 238.3,245.4 239.4,245.4 239.4,235 		"/>
		<path d="M246.2,245.6c1.7,0,3-1.3,3-3c0-1.5-0.9-2.5-2.5-3.4c-1.3-0.8-2.2-1.2-2.2-2.6c0-1.1,0.8-1.8,1.6-1.8
			c0.8,0,1.4,0.3,2.1,0.9l0.7-0.8c-0.8-0.7-1.7-1.1-2.7-1.1c-1.6,0-2.7,1.1-2.7,2.8c0,1.6,1.1,2.5,2.6,3.4c1.3,0.8,2,1.3,2,2.6
			c0,1.2-0.7,2-1.8,2c-1,0-1.6-0.3-2.3-0.9l-0.7,0.8C244.1,245.2,245,245.6,246.2,245.6"/>
	</g>
</g>
</svg>
