<svg height="26" viewBox="0 0 100 26" width="100" xmlns="http://www.w3.org/2000/svg"><path d="m91.9997048 21.3689199-.595853.8461321-.595853-.8461321h-.2383412v1.5713882h.2383412v-1.2087601l.4766824.7252561h.1191706l.4766824-.7252561v.120876 1.2087602h.2383412v-1.5713883h-.1191706zm-2.7409238.241752h.4766824v1.4505123h.2383412v-1.4505123h.4766824v-.241752h-1.0725354v.241752zm-10.6061836 3.9889086c.1191706 0 .1191706 0 0 0 .1191706.1208761.1191706.1208761 0 0l-.595853.1208761c-.3575118 0-.4766824 0-.595853-.1208761-.2383412-.120876-.4766824-.362628-.7150236-.8461321-.2383412-.362628-.4766824-.7252561-.595853-.7252561 0 0 0-.120876-.1191706-.120876h-.4766825v.120876 1.2087602c0 .120876 0 .362628.2383413.362628h.2383412s0 0-.1191706 0c-.3575119 0-.7150237 0-.8341943 0s-.4766824 0-.7150236 0c-.1191706 0-.1191706 0-.1191706 0h.1191706.2383412c.1191706 0 .1191706-.120876.1191706-.362628s0-.7252561 0-1.2087602v-.9670081c0-.8461322 0-1.0878842 0-1.2087602 0-.2417521 0-.2417521-.2383412-.3626281 0 0-.1191706 0-.2383412 0s-.1191706 0-.1191706 0h.1191706.8341942.8341943c.3575118 0 .7150236 0 1.0725354.2417521.1191706.120876.3575118.362628.3575118.8461321 0 .362628-.2383412.8461321-.7150236 1.2087602.4766824.6043801.8341942 1.2087602 1.191706 1.4505122.3575118.362628.595853.362628.595853.362628zm-2.2642414-2.0548923c.1191706-.120876.3575118-.362628.3575118-.8461321 0-.8461321-.595853-1.0878842-.8341942-1.0878842-.1191706 0-.2383413 0-.3575119 0v.1208761 1.8131402.120876h.4766825c.2383412 0 .2383412 0 .3575118-.120876zm8.6994539 2.1757684c.2383412.120876.4766824.120876.8341942.120876.2383412 0 .595853-.120876.9533648-.2417521.3575119-.241752.4766825-.60438.4766825-.9670081 0-.6043801-.2383412-.9670082-.9533649-1.4505122l-.1191706-.120876c-.4766824-.3626281-.595853-.6043801-.595853-.8461322 0-.362628.2383412-.6043801.7150236-.6043801.3575118 0 .4766824.1208761.5958531.2417521.1191706.120876.1191706.362628.1191706.362628v.120876s.1191706 0 .1191706-.120876c0-.483504 0-.6043801 0-.7252561 0 0 0 0-.1191706-.120876-.1191706 0-.3575119-.120876-.7150237-.120876-.8341942 0-1.3108766.4835041-1.3108766 1.0878841 0 .4835041.2383412.8461322.8341942 1.3296362l.2383412.2417521c.4766824.362628.595853.6043801.595853.9670081 0 .2417521-.2383412.6043801-.7150236.6043801-.3575118 0-.7150236-.120876-.8341942-.6043801 0-.120876 0-.241752 0-.241752v-.120876s0 .120876-.1191706.120876v.7252561c-.1191706.241752-.1191706.241752 0 .3626281zm-4.1709711-1.6922643v1.2087602c0 .120876 0 .362628-.1191706.362628 0 0-.1191706 0-.2383412 0s-.1191706 0-.1191706 0h.1191706.7150236.8341943.1191706s0 0-.1191706 0-.2383412 0-.2383412 0c-.1191706 0-.2383412-.120876-.2383412-.362628s0-.7252561 0-1.2087602v-2.2966443h.7150236c.4766824 0 .7150236.241752.7150236.362628v.120876c0 .120876 0 .120876.1191706.120876 0 0 0 0 0-.120876s0-.483504 0-.6043801c0-.120876 0-.120876 0-.120876h-.1191706c-.1191706 0-.2383412 0-.3575118 0h-2.2642415c-.2383412 0-.3575118 0-.595853 0-.1191706 0-.2383412-.120876-.2383412-.120876s0 0-.1191706.120876c0 0-.1191706.6043801-.1191706.6043801s0 .120876.1191706.120876c0 0 0 0 0-.120876 0 0 0-.120876.1191706-.241752s.2383412-.120876.595853-.2417521h.8341942v2.4175204zm-10.6061835-2.6592724c1.4300472 0 2.2642414.8461321 2.2642414 2.1757683s-.9533648 2.4175204-2.383412 2.4175204c-1.6683885 0-2.2642415-1.2087602-2.2642415-2.2966444 0-1.0878841.7150236-2.2966443 2.3834121-2.2966443zm.2383412 4.1097846c.3575118 0 1.3108766-.241752 1.3108766-1.8131403 0-1.3296362-.7150236-2.0548923-1.6683884-2.0548923-.5958531 0-1.4300473.3626281-1.4300473 1.8131403 0 1.2087602.7150236 2.0548923 1.7875591 2.0548923zm-6.7927244.2417521c.2383412.120876.4766824.120876.8341943.120876.3575118 0 .595853-.120876.9533648-.2417521.3575118-.241752.4766824-.60438.4766824-.9670081 0-.6043801-.2383412-.9670082-.9533648-1.4505122l-.1191706-.120876c-.4766825-.3626281-.5958531-.6043801-.5958531-.8461322 0-.362628.2383413-.6043801.7150237-.6043801.3575118 0 .4766824.1208761.595853.2417521s.1191706.362628.1191706.362628v.120876s.1191706 0 .1191706-.120876c0-.483504 0-.6043801 0-.7252561 0 0 0 0-.1191706-.120876-.1191706 0-.3575118-.120876-.7150236-.120876-.7150237 0-1.3108767.4835041-1.3108767 1.0878841 0 .4835041.2383412.8461322.8341943 1.3296362l.2383412.2417521c.4766824.362628.595853.6043801.595853.9670081 0 .2417521-.2383412.6043801-.7150236.6043801-.3575119 0-.7150237-.120876-.8341943-.6043801 0-.120876 0-.241752 0-.241752s0-.120876-.1191706-.120876c0 0 0 .120876-.1191706.120876v.7252561c0 .241752 0 .241752.1191706.3626281zm-4.5284828-1.6922643v1.2087602c0 .120876 0 .362628-.1191706.362628 0 0-.1191706 0-.2383413 0-.1191706 0-.1191706 0-.1191706 0h.1191706.3575119.3575118.595853.9533648c.2383412 0 .2383412 0 .3575118-.120876 0-.120876.1191706-.483504.1191706-.6043801v-.120876.120876c0 .2417521-.1191706.3626281-.2383412.4835041s-.3575118.120876-.4766824.120876c-.595853 0-.7150236-.120876-.7150236-.483504 0-.1208761 0-.7252562 0-.8461322v-.4835041-.120876h.8341942c.2383412 0 .2383412.120876.3575118.2417521v.241752s0 0 0-.120876c0 0 0-.2417521 0-.3626281 0-.241752 0-.362628 0-.362628s-.1191706 0-.1191706.120876-.1191706.120876-.2383412.120876h-.9533648s0 0 0-.120876v-1.4505122h.8341942c.2383412 0 .3575118.120876.3575118.241752v.241752s0 .1208761.1191706.1208761c0 0 0 0 0-.1208761v-.362628c0-.241752 0-.3626281 0-.3626281h-.1191706s-.1191706 0-.2383412 0-1.191706 0-1.4300472 0c-.1191706 0-.2383412 0-.3575118 0s-.3575119 0-.4766825 0-.1191706 0-.1191706 0h.1191706.2383413c.2383412 0 .2383412.1208761.2383412.3626281v1.2087602zm-1.6683885 1.5713882c.1191706 0 .1191706 0 0 0 .1191706.1208761 0 .1208761 0 0l-.595853.1208761c-.3575118 0-.4766824 0-.595853-.1208761-.2383412-.120876-.4766824-.362628-.7150236-.8461321-.2383412-.362628-.4766824-.7252561-.595853-.7252561 0 0-.1191706-.120876-.1191706-.120876h-.4766824v.120876 1.2087602c0 .120876 0 .362628.2383412.362628h.2383412.1191706s0 0-.1191706 0c-.3575118 0-.7150236 0-.8341942 0s-.4766824 0-.7150236 0c-.1191707 0-.1191707 0-.1191707 0h.1191707.2383412c.1191706 0 .1191706-.120876.1191706-.362628s0-.7252561 0-1.2087602v-.9670081c0-.8461322 0-1.0878842 0-1.2087602 0-.2417521-.1191706-.2417521-.2383412-.3626281 0 0-.1191706 0-.2383413 0h-.1191706.1191706.8341943.8341942c.3575118 0 .7150236 0 1.0725354.2417521.1191706.120876.3575118.362628.3575118.8461321 0 .362628-.1191706.8461321-.7150236 1.2087602.4766824.6043801.8341942 1.2087602 1.191706 1.4505122.3575118.362628.595853.362628.595853.362628zm-2.2642414-2.0548923c.1191706-.120876.3575118-.362628.3575118-.8461321 0-.8461321-.4766824-1.0878842-.8341942-1.0878842-.1191706 0-.2383412 0-.3575118 0v.1208761 1.8131402.120876h.4766824c.2383412 0 .2383412 0 .3575118-.120876zm-6.1968713 2.0548923c0 .1208761 0 .1208761 0 0l-.4766824.1208761c-.7150236 0-.8341942 0-1.3108767-.4835041-.1191706.120876-.595853.4835041-1.3108766.4835041-1.191706 0-1.5492178-.7252561-1.5492178-1.3296362 0-.7252562.595853-1.2087602.9533648-1.3296362-.2383412-.3626281-.2383412-.6043801-.2383412-.8461322 0-.483504.3575118-1.0878841 1.3108766-1.0878841.2383412 0 .595853 0 .7150236.120876.1191706 0 .1191706.120876.1191706.120876 0 .241752 0 .6043801-.1191706.7252561 0 .120876 0 .120876-.1191706.120876 0 0 0 0 0-.120876s0-.362628-.1191706-.4835041c-.1191706-.120876-.3575118-.241752-.595853-.241752s-.595853.120876-.595853.6043801.4766824.9670081.9533648 1.4505122c.2383412.241752.9533649.8461321.9533649.9670082.1191706-.1208761.2383412-.4835041.2383412-.8461322 0-.120876 0-.241752-.1191706-.241752-.1191706-.120876-.2383413-.120876-.2383413-.120876h-.1191706s0-.120876.1191706-.120876h.7150237c.1191706 0 .2383412 0 .2383412.120876 0 .483504-.2383412.9670081-.595853 1.3296362.3575118.241752.595853.4835041.8341942.6043801-.1191706.483504.2383412.483504.3575118.483504zm-2.9792651-.120876c.4766824 0 .8341942-.241752.9533648-.362628-.3575118-.2417521-.8341942-.8461322-1.0725354-.9670082-.1191706-.120876-.4766824-.6043801-.595853-.7252561-.2383412.120876-.3575118.3626281-.3575118.8461321-.1191706.7252562.4766824 1.2087602 1.0725354 1.2087602zm-8.9377951.2417521c.2383412.120876.4766824.120876.8341942.120876s.595853-.120876.9533648-.2417521c.3575118-.241752.595853-.60438.595853-.9670081 0-.6043801-.2383412-.9670082-.9533648-1.4505122l-.1191706-.120876c-.4766824-.3626281-.595853-.6043801-.595853-.8461322 0-.362628.2383412-.6043801.7150236-.6043801.3575118 0 .4766824.1208761.595853.2417521s.1191706.362628.1191706.362628v.120876s.1191706 0 .1191706-.120876c0-.483504 0-.6043801 0-.7252561 0 0 0 0-.1191706-.120876-.1191706 0-.3575118-.120876-.7150236-.120876-.8341942 0-1.3108766.4835041-1.3108766 1.0878841 0 .4835041.2383412.8461322.8341942 1.3296362l.2383412.2417521c.4766824.362628.595853.6043801.595853.9670081 0 .2417521-.2383412.6043801-.7150236.6043801-.3575118 0-.7150236-.120876-.8341942-.6043801 0-.120876 0-.241752 0-.241752s0-.120876-.1191706-.120876c0 0 0 .120876-.1191706.120876v.7252561c-.1191706.241752-.1191706.241752 0 .3626281zm-3.6942887-2.6592724c0-.8461322 0-1.0878842 0-1.2087602 0-.2417521 0-.3626281.2383412-.3626281h.2383412.1191706s0 0-.1191706 0c-.2383412 0-.595853 0-.8341942 0-.1191706 0-.4766824 0-.7150236 0-.1191706 0-.1191706 0-.1191706 0h.1191706.2383412c.2383412 0 .2383412.120876.2383412.3626281v1.2087602.9670081 1.2087602c0 .120876 0 .362628-.1191706.362628 0 0-.1191706 0-.2383412 0s-.1191706 0-.1191706 0h.1191706.3575118.3575118.7150236.9533648c.2383412 0 .3575118 0 .3575118-.120876s.1191706-.6043801.1191706-.6043801v-.120876.120876c0 .1208761-.1191706.2417521-.1191706.3626281-.1191706.120876-.3575118.120876-.7150236.120876-.4766824 0-.595853 0-.7150236-.120876s-.1191706-.4835041-.1191706-1.2087602v-.9670081zm-5.4818477.9670081v1.2087602c0 .120876 0 .362628-.1191706.362628 0 0-.1191706 0-.2383412 0h-.1191706.1191706.3575118.3575118.595853.9533648c.2383412 0 .2383412 0 .3575118-.120876 0-.120876.1191706-.483504.1191706-.6043801v-.120876s0 0-.1191706.120876c0 .2417521-.1191706.3626281-.2383412.4835041s-.3575118.120876-.4766824.120876c-.595853 0-.7150236-.120876-.7150236-.483504v-.8461322-.4835041-.120876h.8341942c.2383412 0 .2383412.120876.3575118.2417521v.241752s0 0 0-.120876c0 0 0-.2417521 0-.3626281 0-.241752 0-.362628 0-.362628s0 0-.1191706.120876c0 .120876-.1191706.120876-.2383412.120876h-.9533648s0 0 0-.120876v-1.4505122h.8341942c.2383412 0 .3575118.120876.3575118.241752v.241752.1208761s0 0 0-.1208761v-.362628c0-.241752 0-.3626281 0-.3626281s0 0-.1191706 0c0 0-.1191706 0-.2383412 0s-1.191706 0-1.4300472 0c-.1191706 0-.2383412 0-.3575118 0s-.2383412 0-.4766824 0c-.1191706 0-.1191706 0-.1191706 0h.1191706.2383412c.2383412 0 .2383412.1208761.2383412.3626281v1.2087602.8461321zm-4.5284829 0v1.2087602c0 .120876 0 .362628-.1191706.362628 0 0-.1191706 0-.2383412 0s-.1191706 0-.1191706 0h.1191706.7150236.8341942.1191706s0 0-.1191706 0-.2383412 0-.2383412 0c-.1191706 0-.2383412-.120876-.2383412-.362628s0-.7252561 0-1.2087602v-2.2966443h.7150236c.4766825 0 .7150237.241752.7150237.362628v.120876.120876s0 0 .1191706-.120876c0-.120876 0-.483504 0-.6043801 0-.120876 0-.120876 0-.120876h-.1191706c-.1191706 0-.2383412 0-.3575118 0h-2.2642415c-.2383412 0-.3575118 0-.595853 0-.1191706 0-.2383412-.120876-.2383412-.120876s0 0-.1191706.120876c0 0-.1191706.6043801-.1191706.6043801v.120876s0 0 .1191706-.120876c0 0 0-.120876.1191706-.241752s.2383412-.120876.595853-.2417521h.8341942v2.4175204zm-5.0051653-2.6592724c1.4300473 0 2.2642415.8461321 2.2642415 2.1757683s-.9533648 2.4175204-2.3834121 2.4175204c-1.6683884 0-2.2642414-1.2087602-2.2642414-2.2966444 0-1.0878841.595853-2.2966443 2.383412-2.2966443zm.1191706 4.1097846c.3575118 0 1.3108767-.241752 1.3108767-1.8131403 0-1.3296362-.7150237-2.0548923-1.6683885-2.0548923-.595853 0-1.4300472.3626281-1.4300472 1.8131403.1191706 1.2087602.7150236 2.0548923 1.787559 2.0548923zm-7.5077479-2.2966443v-.120876c0-.8461322 0-1.0878842 0-1.2087602 0-.2417521.1191706-.3626281.2383412-.3626281h.1191706.1191706s0 0-.1191706 0c-.2383412 0-.595853 0-.7150236 0s-.4766824 0-.83419422 0c-.11917061 0-.11917061 0-.11917061 0h.11917061.23834122c.2383412 0 .2383412.120876.2383412.3626281v1.2087602.9670081 1.2087602c0 .120876 0 .362628-.1191706.362628 0 0-.1191706 0-.2383412 0-.11917062 0-.11917062 0-.11917062 0h.11917062.7150236.8341942.1191706s0 0-.1191706 0-.2383412 0-.2383412 0c-.1191706 0-.2383412-.120876-.2383412-.362628s0-.7252561 0-1.2087602v-.4835041h2.1450708v.4835041 1.2087602c0 .120876 0 .362628-.1191706.362628 0 0-.1191706 0-.2383412 0s-.1191706 0-.1191706 0h.1191706.7150236.8341943.1191706s0 0-.1191706 0-.2383412 0-.2383412 0c-.1191706 0-.2383413-.120876-.2383413-.362628s0-.7252561 0-1.2087602v-.9670081c0-.8461322 0-1.0878842 0-1.2087602 0-.2417521 0-.3626281.2383413-.3626281h.1191706.1191706s0 0-.1191706 0c-.2383412 0-.5958531 0-.7150237 0s-.4766824 0-.8341942 0c-.1191706 0-.1191706 0-.1191706 0h.1191706.2383412c.2383412 0 .2383412.120876.2383412.3626281v1.2087602.120876zm88.067075-15.95563445c0 4.23066065-3.0984357 6.52730495-8.103601 6.52730495h-4.1709711c.8341943-.362628 1.1917061-.6043801 1.1917061-1.9340163v-9.18657735c0-1.20876018 0-1.57138824-1.1917061-1.93401629h4.8859947c4.0518005 0 7.3885774 2.17576833 7.3885774 6.52730499zm-7.3885774 4.95591675c2.9792651 0 5.0051653-1.8131403 5.0051653-4.95591675 0-3.14277648-1.9067296-5.31854481-5.1243359-5.31854481h-1.787559v8.94482536c0 .9670081.2383412 1.2087602 1.0725354 1.2087602h.8341942zm-28.2434327-8.21956925c0-2.53839638-2.383412-3.14277648-4.0518004-3.14277648h-4.5284829c1.0725354.36262806.9533648 1.9340163.9533648 2.78014843v7.4943131c0 .8461322.1191706 2.4175204-1.191706 2.7801485h.3575118 3.575118.3575119c-1.1917061-.3626281-1.1917061-1.8131403-1.1917061-2.7801485v-8.70307329s.4766824-.12087602 1.1917061-.12087602c1.4300472 0 2.383412.96700815 2.383412 2.29664435 0 1.57138824-1.191706 2.29664435-2.5025827 2.65927241l5.4818477 6.76905705h2.7409239c-1.0725354-.7252561-2.2642414-2.1757684-3.3367769-3.6262806l-2.5025826-3.02190043c0-.24175204 2.2642414-.72525611 2.2642414-3.38452852zm-27.2900679-3.74715657v11.60409772c0 1.3296362-.3575118 1.5713883-1.0725354 1.9340163h4.1709711c-1.0725354-.362628-1.191706-.6043801-1.191706-1.9340163v-7.37343707l9.89116 9.54920547v-11.24146973c0-1.45051222 0-1.57138824.9533648-2.05489231h-3.8134593c.9533648.36262805 1.0725354.60438009 1.0725354 1.93401629v7.13168508zm-12.274572 0c3.8134593 0 6.4352125 2.78014842 6.4352125 6.76905703 0 3.98890859-2.8600944 7.01080909-6.4352125 7.01080909-3.6942886 0-6.5543831-3.0219005-6.5543831-7.01080909 0-3.98890861 2.7409239-6.76905703 6.5543831-6.76905703zm-.1191706 12.20847782c2.6217533 0 4.4093123-2.1757683 4.4093123-5.43942079 0-3.2636525-1.6683884-5.31854481-4.2901417-5.31854481-2.5025826 0-4.4093123 2.29664435-4.4093123 5.31854481.1191707 3.02190049 1.9067297 5.43942079 4.2901417 5.43942079zm-15.96886066-10.87884162c2.86009446 0 3.69428866 1.69226426 3.69428866 1.69226426v-3.14277648c-.2383412.36262806-.3575118.48350408-.7150236.48350408-.4766824 0-1.66838844-.36262806-3.45594747-.36262806-4.05180047 0-6.91189492 2.90102444-6.91189492 6.76905703 0 3.74715659 2.62175325 6.88993309 7.03106552 6.88993309 1.43004723 0 2.38341205-.2417521 4.29014167-.7252562l.2383412-2.7801484s-1.4300472 2.0548923-4.29014166 2.0548923c-3.09843566 0-5.00516529-2.1757683-5.00516529-5.43942079.1191706-3.38452851 2.14507084-5.43942083 5.12433589-5.43942083zm68.76143746 2.41752037-3.2176063 8.34044525c-.1191706.2417521-.1191706.4835041-.1191706.7252561 0 .3626281.2383412.6043801.8341942.8461322h-4.1709711c.8341943-.3626281 1.0725355-.6043801 1.3108767-1.2087602l5.3626771-12.3293539 5.3626771 12.3293539c.3575118.7252561.4766824.8461321 1.3108766 1.2087602h-4.1709711c.595853-.2417521.8341942-.4835041.8341942-.8461322 0-.241752 0-.362628-.1191706-.7252561z" fill="#6b3a23" transform=""/></svg>