<svg height="31" viewBox="0 0 110 31" width="110" xmlns="http://www.w3.org/2000/svg"><g fill="#f15f22" transform=""><path d="m26.4184828 20.6500378h.5957724v3.7820381h-.5957724v-1.536453h-1.9064719v1.6546417h-.5957724v-3.7820381h.5957724v1.6546416h1.9064719zm-7.9833509 1.7728303-.9532359-1.7728303h-.714927l1.3106994 2.2455851v1.536453h.5957725v-1.536453l1.3106994-2.2455851h-.5957725zm-3.2171712.9455096c0 .5909434-.476618 1.0636982-1.1915449 1.0636982h-1.4298539v-3.7820381h1.4298539c.7149269 0 1.1915449.4727548 1.1915449.9455095 0 .3545661-.238309.7091321-.5957725.8273208.238309.1181887.5957725.4727548.5957725.9455096zm-2.1447809-1.0636983h.714927c.3574635 0 .5957724-.2363773.5957724-.5909434s-.1191545-.5909434-.5957724-.5909434h-.714927zm1.5490084 1.0636983c0-.3545661-.238309-.5909435-.7149269-.5909435h-.8340815v1.1818869h.8340815c.4766179 0 .7149269-.2363774.7149269-.5909434zm18.945564-2.7183399h-.5957725v3.7820381h2.2639354v-.5909435h-1.6681629zm16.3241652 0v2.4819625l-2.5022443-2.6001512v3.9002268h.5957724v-2.4819625l2.5022443 2.6001512v-3.9002268zm-20.2562634 3.9002268h.5957725v-3.7820381h-.5957725zm15.7283927-2.0092078c0 1.1818869-.8340814 2.0092078-2.0256263 2.0092078-1.0723904 0-2.0256263-.8273209-2.0256263-2.0092078s.8340814-2.0092077 2.0256263-2.0092077c1.0723904.1181887 2.0256263.9455095 2.0256263 2.0092077zm-.7149269 0c0-.8273208-.5957724-1.4182642-1.3106994-1.4182642-.8340814 0-1.3106994.5909434-1.3106994 1.4182642 0 .8273209.5957725 1.4182643 1.3106994 1.4182643.8340814 0 1.3106994-.5909434 1.3106994-1.4182643zm-7.8641964-1.3000756h1.1915449v3.3092834h.5957725v-3.3092834h1.1915449v-.5909434h-2.8597078v.5909434z"/><path d="m94.6940058 2.21260221h-.5957725v-.23637738h1.4298539v.23637738h-.5957724v1.65464166h-.3574635v-1.65464166zm1.5490084.47275476.7149269.82732083.714927-.82732083v1.30007559h.2383089v-2.00920773l-.9532359 1.06369821-.9532359-1.06369821v2.00920773h.238309zm-89.00840439 10.99154813c-3.21717125 0-5.12364309-2.4819625-5.12364309-5.31849103 0-3.427472 2.5022443-5.20030234 5.12364309-5.20030234 1.78731735 0 3.69378919.82732083 4.40871619 2.83652855h2.0256263c-1.0723904-3.427472-4.05125269-4.49117021-6.55349699-4.49117021-4.05125267 0-7.03011493 3.07290593-7.03011493 7.09132138 0 4.37298155 3.09801675 6.97313265 7.03011493 6.97313265 3.81294369 0 5.83856999-2.2455851 6.55349699-4.3729815h-2.0256263c-.5957725 1.536453-2.02562639 2.4819625-4.40871619 2.4819625zm19.30302749-11.58249158h1.7873173v13.11894458h-1.7873173v-1.4182643c-1.0723905 1.0636982-2.7405533 1.7728303-4.7661797 1.7728303-4.2895616 0-6.7918059-2.9547172-6.7918059-6.97313265 0-3.66384938 2.5022443-6.97313269 7.0301149-6.97313269 1.5490084 0 3.2171713.47275476 4.4087162 1.41826428v-.94550952zm0 3.07290593c-.953236-1.0636982-2.3830899-2.00920772-4.4087162-2.00920772-3.0980167 0-5.2427976 2.12739641-5.2427976 5.31849103 0 2.95471724 1.6681629 5.31849104 5.0044886 5.31849104 2.2639353 0 3.9320982-1.1818869 4.5278707-2.2455851v-6.38218925zm82.5740617-3.54566069c-.357463.11818869-.834081 0-1.429854.23637738-.834081.35456607-1.787317.94550952-2.740553 1.53645297-4.051253 2.71833986-8.6982778 6.97313269-12.392067 10.75517079v.2363773c0 .8273209-.1191545 2.6001512-.238309 3.427472-.476618 4.3729816-2.8597078 12.8825672-7.5067329 12.8825672-1.7873174 0-2.7405533-1.0636982-2.7405533-2.6001512 0-2.6001511 2.0256263-5.318491 3.3363257-6.854944 1.0723905-1.3000755 2.8597078-3.3092833 4.5278707-5.2003023.3574635-.3545661.7149269-.7091321 1.0723904-1.0636982.1191545-2.0092077.238309-4.7275476 0-8.0368309 0-.82732083-.1191545-1.1818869-.8340814-.59094345-.714927.59094345-1.7873174 1.89101903-2.6213988 2.83652855-1.1915449 1.3000756-3.9320982 4.6093589-5.7194156 5.5548684-.5957724.3545661-.9532359.4727548-1.6681628.4727548-1.0723905 0-1.5490084-.8273209-1.5490084-1.8910191 0-.5909434.1191545-1.4182642.238309-2.1273964.2383089-1.1818869.5957724-2.83652853.8340814-4.37298149-2.2639353 3.66384939-6.076879 6.26400059-8.4599688 7.20951009 0 0 0 0-.1191545 0-1.1915449.7091321-3.4554802 1.0636982-4.2895617 1.1818869-.5957724 0-.9532359-.3545661-.2383089-.5909435 1.5490083-.5909434 3.6937892-1.3000756 4.4087161-1.891019 1.4298539-1.1818869 2.7405533-2.95471725 2.7405533-5.55486842 0-2.95471724-1.7873174-4.37298152-4.2895617-4.37298152-2.2639353 0-3.6937892.94550952-4.0512527 1.65464166-.1191544.35456606-.2383089.94550951-.3574634 1.89101903-.5957725 7.44588745-.714927 16.31003915-.3574635 19.97388855-.476618 1.1818869-.5957724 1.7728303-1.1915449 1.7728303s-.7149269-1.1818869-.7149269-1.6546416c-.1191545-2.1273964-.238309-5.0821137-.238309-5.9094345 0-3.0729059.238309-8.5095856.4766179-11.46430289 0-.70913214.238309-2.83652855.238309-2.83652855-.9532359 1.53645296-2.3830898 2.83652855-3.9320982 4.13660414-.7149269 2.7183399-2.8597077 5.318491-7.1492694 5.318491-3.8129437 0-6.315188-2.4819625-6.315188-6.38218921 0-4.49117021 3.2171713-7.44588745 7.3875784-7.44588745 3.4554802 0 6.4343425 2.24558511 6.315188 6.38218924 0 .35456607 0 .70913214-.1191545.94550952 1.6681629-1.53645297 2.8597078-2.83652855 4.0512527-5.20030234.476618-1.06369821 3.0980168-2.24558511 5.600261-2.24558511 3.5746348 0 6.4343425 1.65464166 6.4343425 5.31849104 0 2.12739641-.9532359 3.78203811-1.9064718 4.84573631 2.9788622-1.8910191 5.4811065-5.20030238 6.1960335-7.80045355.3574635-1.30007559 0-2.00920773 2.0256263-2.00920773 0 1.1818869-.5957724 4.96392497-.9532359 6.61856662-.1191545.82732083-.476618 2.95471726-.476618 3.78203806 0 1.3000756 1.3106994 1.4182643 3.2171713-.1181887 2.2639353-1.891019 5.600261-6.50037791 7.0301149-9.45509515.238309-.47275476.476618-.70913214.8340815-.70913214.5957724 0 .7149269.94550952.8340814 2.36377379.3574635 3.30928331.3574635 6.3821892.238309 8.9823404 3.6937892-3.66384936 7.506733-7.09132136 10.843059-9.69147253.714927-.59094345 1.787317-1.41826428 2.740553-2.00920773 1.07239-.82732082 1.906472-1.18188689 2.502244-1.41826427.357464-.11818869.714927 0 .834082.23637738.238309 0 .238309.70913214-.357464.94550951zm-51.8322032 9.69147254c-.5957725.2363774-1.4298539.5909435-2.0256263.7091322-2.5022443.5909434-5.3619521.354566-7.1492695-1.1818869.5957725 2.1273964 2.1447809 3.1910946 4.5278707 3.1910946s3.8129437-1.0636982 4.6470251-2.7183399zm.7149269-3.07290592c0-3.427472-1.7873173-5.6730571-4.8853341-5.6730571-3.2171712 0-5.2427976 2.60015117-5.2427976 5.6730571.5957725 3.78203812 6.4343425 4.60935892 9.7706683 2.24558512.2383089-.70913215.3574634-1.41826429.3574634-2.24558512zm32.8866394 7.68226482c-.238309.3545661-.476618.5909435-.8340814.8273208-2.7405533 3.1910947-6.4343425 7.6822649-6.4343425 11.2279255 0 .8273209.3574635 1.6546417 1.4298539 1.6546417 2.3830898 0 4.0512526-3.9002268 4.8853341-6.854944.5957724-2.3637738.8340814-5.318491.9532359-5.9094345zm-45.5170154-1.0636982c-1.4298538 0-2.1447808-1.1818869-2.1447808-2.6001512v-.354566-4.25479287-1.0636982c0-2.83652855-1.5490084-4.96392497-5.600261-4.96392497-1.4298539 0-2.9788623.59094345-4.2895617 1.53645297v-.94550952h-1.9064718v2.60015117 10.40060472h1.9064718v-10.16422734c.9532359-.94550951 2.6213988-1.77283034 4.1704072-1.77283034 1.9064718 0 3.0980167.59094345 3.5746347 2.12739641.1191545.35456607.238309.94550952.238309 1.77283035v5.20030232c0 1.8910191 1.0723904 3.0729059 3.0980167 3.0729059 1.4298539 0 2.2639353-.354566 2.7405533-.9455095l-.1191545-.2363773c-.4766179.2363773-.9532359.5909434-1.6681629.5909434z"/></g></svg>