<svg height="92" viewBox="0 0 119 92" width="119" xmlns="http://www.w3.org/2000/svg"><g fill="#0a3250" transform=""><path d="m13.0336983 91.281943v-3.3742353h-3.34649008v3.3742353h-1.40904847v-7.6364272h1.40904847v3.0190526h3.34649008v-3.0190526h1.4090485v7.6364272z"/><path d="m3.52262117 1.2431393c-1.40904847 0-2.28970376 1.2431393-2.28970376 2.84146126s.88065529 2.84146126 2.28970376 2.84146126 2.28970376-1.2431393 2.28970376-2.84146126-.88065529-2.84146126-2.28970376-2.84146126m0 6.57087916c-1.93744164 0-3.52262117-1.42073063-3.52262117-3.90700923s1.76131058-3.90700923 3.52262117-3.90700923c1.93744164 0 3.52262117 1.42073063 3.52262117 3.90700923.17613106 2.4862786-1.58517953 3.90700923-3.52262117 3.90700923" transform="translate(15.851795 83.467925)"/><path d="m27.3003141 84.8886551v6.3932879h-1.4090485v-6.3932879h-2.2897038v-1.2431393h5.988456l.1761311 1.2431393z"/><path d="m31.1751974 91.281943v-7.6364272h4.5794075v1.2431393h-3.3464901v1.7759133h2.8180969l.1761311 1.2431393h-2.994228v2.131096h3.5226211v1.2431393z"/><path d="m37.6920465 91.281943v-7.6364272h1.4090485v6.3932879h2.8180969l.1761311 1.2431393z"/><g transform="translate(42.271454 83.467925)"><path d="m3.17035905 7.81401846c-.88065529 0-1.76131058-.17759132-2.46583482-.53277398l.17613106-1.2431393c.70452424.35518265 1.58517953.71036531 2.46583482.71036531s1.40904847-.35518266 1.40904847-1.06554797c0-.71036532-.35226212-.88795664-1.40904847-1.2431393-1.58517953-.53277399-2.28970376-1.06554797-2.28970376-2.13109595 0-1.2431393 1.05678635-2.13109594 2.46583482-2.13109594.88065529 0 1.58517953.17759133 2.1135727.35518266l-.17613106 1.2431393c-.70452423-.35518266-1.40904846-.53277399-1.93744164-.53277399-.70452423 0-1.23291741.35518266-1.23291741.88795664 0 .53277399.35226212.71036532 1.58517953 1.24313931 1.58517952.53277398 2.28970376 1.06554797 2.28970376 2.30868727-.17613106 1.2431393-1.23291741 2.13109594-2.994228 2.13109594"/><path d="m13.0336983 4.26219189c-.7045242.35518266-1.0567863.88795664-1.0567863 1.42073063 0 .71036531.5283932 1.2431393 1.4090484 1.2431393.5283932 0 1.0567864-.17759133 1.5851796-.71036531zm3.5226212 3.55182657-1.0567864-1.06554797c-.5283931.71036532-1.4090484 1.06554797-2.2897037 1.06554797-1.5851795 0-2.4658348-.71036531-2.4658348-2.13109594 0-1.06554797.7045242-1.77591329 1.5851795-2.30868727-.5283932-.53277399-.7045242-.88795665-.7045242-1.59832196 0-1.06554797.7045242-1.77591329 2.1135727-1.77591329.7045242 0 1.4090484.17759133 1.9374416.53277399l-.1761311 1.2431393c-.5283931-.35518266-1.0567863-.53277399-1.7613105-.53277399-.5283932 0-.8806553.35518266-.8806553.71036532 0 .35518265.176131.71036531.7045242 1.2431393l1.9374416 1.95350461c.1761311-.53277398.3522622-1.06554797.5283932-1.77591328l1.0567864.17759132c-.1761311.88795665-.3522621 1.59832196-.7045243 2.30868728l1.5851796 1.59832196z"/><path d="m24.8344792 1.42073063h-1.0567863v2.4862786h1.0567863c.8806553 0 1.4090485-.53277398 1.4090485-1.2431393.1761311-.88795664-.3522621-1.2431393-1.4090485-1.2431393zm2.1135727 6.39328783-2.1135727-3.01905258h-.8806552v2.84146126h-1.4090485v-7.45883581h2.2897037c1.7613106 0 2.818097.88795664 2.818097 2.30868727 0 1.06554797-.7045243 1.77591329-1.5851795 2.13109595l2.1135727 2.84146126z"/></g><path d="m72.0376029 91.281943v-7.6364272h4.5794075v1.2431393h-3.170359v1.7759133h2.6419659l.176131 1.2431393h-2.8180969v2.131096h3.3464901v1.2431393z"/><g transform="translate(77.497666 83.467925)"><path d="m3.34649011 7.81401846c-.88065529 0-1.76131058-.17759132-2.64196588-.53277398l.17613106-1.2431393c.70452424.35518265 1.58517953.71036531 2.46583482.71036531s1.40904847-.35518266 1.40904847-1.06554797c0-.71036532-.35226212-.88795664-1.40904847-1.2431393-1.58517953-.53277399-2.28970376-1.06554797-2.28970376-2.13109595 0-1.2431393 1.05678635-2.13109594 2.46583482-2.13109594.88065529 0 1.58517953.17759133 2.1135727.35518266l-.17613106 1.2431393c-.70452423-.35518266-1.40904846-.53277399-1.93744164-.53277399-.70452423 0-1.23291741.35518266-1.23291741.88795664 0 .53277399.35226212.71036532 1.58517953 1.24313931 1.58517952.53277398 2.28970376 1.06554797 2.28970376 2.30868727-.17613106 1.2431393-1.23291741 2.13109594-2.81809694 2.13109594"/><path d="m10.7439946 1.2431393c-1.4090485 0-2.28970379 1.2431393-2.28970379 2.84146126s.88065529 2.84146126 2.28970379 2.84146126c1.4090484 0 2.2897037-1.2431393 2.2897037-2.84146126-.176131-1.59832196-1.0567863-2.84146126-2.2897037-2.84146126m0 6.57087916c-1.93744168 0-3.5226212-1.42073063-3.5226212-3.90700923s1.76131058-3.90700923 3.5226212-3.90700923c1.9374416 0 3.5226211 1.42073063 3.5226211 3.90700923s-1.5851795 3.90700923-3.5226211 3.90700923"/><path d="m18.141499 1.42073063h-1.0567863v2.4862786h1.0567863c.8806553 0 1.4090485-.53277398 1.4090485-1.2431393.1761311-.88795664-.3522621-1.2431393-1.4090485-1.2431393zm2.1135727 6.39328783-2.1135727-3.01905258h-.8806553v2.84146126h-1.4090484v-7.45883581h2.2897037c1.7613106 0 2.818097.88795664 2.818097 2.30868727 0 1.06554797-.7045243 1.77591329-1.5851796 2.13109595l2.1135727 2.84146126z"/></g><path d="m103.388931 84.8886551v6.3932879h-1.409048v-6.3932879h-2.2897039v-1.2431393h5.8123249l.176131 1.2431393z"/><g transform="translate(35.226212)"><path d="m73.7989135 91.281943c-.8806553 0-1.7613106-.1775914-2.4658348-.532774l.176131-1.2431393c.7045243.3551826 1.5851796.7103653 2.4658349.7103653s1.4090484-.3551827 1.4090484-1.065548-.3522621-.8879566-1.4090484-1.2431393c-1.5851796-.532774-2.2897038-1.0655479-2.2897038-2.1310959 0-1.2431393 1.0567864-2.131096 2.4658348-2.131096.8806553 0 1.5851795.1775914 2.1135727.3551827l-.176131 1.2431393c-.7045243-.3551827-1.4090485-.532774-1.9374417-.532774-.7045242 0-1.2329174.3551827-1.2329174.8879567 0 .5327739.3522621.7103653 1.5851795 1.2431393 1.5851796.5327739 2.2897038 1.0655479 2.2897038 2.3086872-.3522621 1.2431393-1.4090485 2.131096-2.994228 2.131096"/><path d="m23.2492997.35518266c-13.2098294 0-23.07316864 8.52438378-23.07316864 17.58154154 0 4.6173745 2.64196588 8.7019751 5.98845599 11.365845l.17613106-.1775913c-2.64196588-2.1310959-4.93166964-5.6829225-4.93166964-10.3002971.70452423-9.94511436 12.85756723-15.45044555 23.60156183-15.45044555 7.5736355 0 21.3118581 1.77591328 21.3118581 14.74008025 0 6.7484705-7.0452424 15.4504456-22.0163823 15.4504456-7.7497666 0-13.5620915-4.0846005-13.5620915-10.1227057 0-5.1501485 4.0510143-8.8795664 9.8633392-8.8795664 1.5851796 0 3.1703591.3551826 4.4032765.7103653-2.4658348-.532774-6.3407181.1775913-8.2781597 1.7759133v8.7019751h7.3975044v-9.7675231c1.4090485.1775913 2.4658348.7103653 3.1703591 1.2431393v8.7019751h1.9374416c-1.4090485 1.7759133-4.2271454 2.6638699-6.6929802 2.3086873v.3551826c6.8691113.532774 9.8633393-2.8414612 9.8633393-6.5708791 0-4.4397833-4.0510144-6.9260619-8.2781598-7.4588358v-6.57087921h-7.3975044v6.57087921c-4.7555386.8879566-9.33494614 3.7294179-9.33494614 8.5243837 0 7.2812445 10.03947034 11.7210277 18.84602324 11.7210277 13.2098294 0 23.4254308-6.3932878 23.4254308-15.4504456-.1761311-11.01066235-14.7950089-19.00227214-26.4196588-19.00227214m10.0394704 21.84373344c0-3.1966439-2.1135727-5.6829225-6.1645871-7.1036532v-7.28124444h7.3975045v17.75913284h-2.2897038c.8806553-.8879566 1.0567864-2.1310959 1.0567864-3.3742352"/></g><path d="m18.8460233 43.6874669v1.5983219l1.9374416.1775914v11.0106623h-12.50530515v-11.0106623l1.93744165-.1775914v-1.5983219h-9.51107717v1.5983219l1.93744165.1775914v25.7507426l-1.93744165.1775914v1.5983219h9.51107717v-1.5983219l-1.93744165-.1775914v-11.7210277h12.50530515v11.7210277l-1.9374416.1775914v1.5983219h9.6872082v-1.5983219l-1.9374417-.1775914v-25.7507426l1.9374417-.1775914v-1.5983219z"/><path d="m8.45429081 3.6823455c0 1.95350462-1.23291741 3.37423525-3.17035906 3.37423525-1.76131058 0-3.17035905-1.2431393-3.17035905-3.19664392 0-1.77591329 1.23291741-3.37423524 3.17035905-3.37423524 1.93744165 0 3.17035906 1.42073063 3.17035906 3.19664391zm-.70452424 25.7507427 1.76131059.1775913v1.4207306h-8.98268398v-1.4207306l1.76131058-.1775913v-17.5815416l-1.76131058-.3551826v-1.2431393h7.22137339z" transform="translate(31.703591 41.958626)"/><path d="m45.265682 71.5693055 1.7613106-.1775913v-26.993882l-1.7613106-.1775913v-1.4207307h7.2213734v28.592204l1.7613106.1775913v1.4207306h-8.982684z"/><g transform="translate(55.709601 46.173745)"><path d="m9.45889018 6.03810518h4.75553862v1.95350461h-4.75553862v12.25380171c0 3.1966439.70452422 4.2621919 3.52262112 4.2621919 1.0567864 0 1.9374417 0 2.818097-.1775914v1.4207307c-2.6419659.8879566-4.7555386 1.2431393-6.69298024 1.2431393-4.05101434 0-5.1078007-1.9535046-5.1078007-5.5053312v-13.49694101h-3.69875222v-1.95350461h3.87488328v-4.26219189l5.28393176-1.59832196z"/><path d="m32.5320588 16.5159936c0-6.57087919-1.9374416-9.41234045-5.1078007-9.41234045-2.994228 0-4.9316696 2.66386993-4.9316696 9.41234045 0 6.5708791 1.9374416 9.4123404 4.9316696 9.4123404 3.1703591-.1775913 5.1078007-2.8414613 5.1078007-9.4123404m5.812325 0c0 6.3932878-4.2271454 10.833071-11.0962567 10.833071-6.5168492 0-10.7439946-2.8414612-10.7439946-10.833071 0-6.74847052 4.2271454-11.18825374 11.0962567-11.18825374 6.6929802.17759133 10.7439946 4.08460056 10.7439946 11.18825374"/><path d="m63.178863 25.39556v1.4207306h-8.982684v-1.4207306l1.7613106-.1775913v-11.7210277c0-3.1966439-1.2329174-4.79496589-3.6987522-4.79496589-1.0567864 0-2.994228.71036531-4.2271454 1.77591329v14.7400803l1.7613106.1775913v1.4207306h-8.982684v-1.4207306l1.7613106-.1775913v-17.40395024l-1.7613106-.35518265v-1.42073063h7.2213734v2.84146126c2.2897037-1.77591329 4.4032764-3.19664392 7.3975044-3.19664392 4.0510144 0 5.812325 2.30868727 5.812325 7.10365318v12.431393z"/></g><path d="m83.1338596 31.9664392h-.7045242v-.1775914h1.5851795v.1775914h-.7045242v2.4862786h-.3522622v-2.4862786zm2.8180969 1.7759133.8806553-2.131096h.3522621v2.6638699h-.3522621v-1.9535046l-.7045242 1.9535046h-.3522621l-.8806553-1.9535046v1.9535046h-.3522621v-2.6638699h.5283931z"/></g></svg>