<svg xmlns="http://www.w3.org/2000/svg" viewBox="0 0 136 87"><title>Endorsed_Tru_horiz</title><g id="Layer_1" data-name="Layer 1"><path d="M41.674,74.324A30.662,30.662,0,1,0,11,43.661,30.668,30.668,0,0,0,41.674,74.324" fill="#00aeef"/><path d="M57.484,34.1V55.69H55.057V51.8h-.083a8.034,8.034,0,0,1-7.449,4.519c-5.44,0-7.574-3.18-7.574-8.2V34.1h2.635V48.159c.126,3.89,1.591,5.94,5.775,5.94,4.52,0,6.488-4.266,6.488-8.659V34.1ZM28.9,39.165h-.083V34.1H26.391V55.69h2.636v-11.5a7.438,7.438,0,0,1,8.035-7.74V33.811A7.979,7.979,0,0,0,28.9,39.165ZM20.074,53.47c-.87-.416-1.012-1.3-1.012-2.592V36.321h4.377V34.1H19.062V27.62H16.425V34.1H12.52q-.36,1.089-.635,2.216h4.54V51.087c-.041,3.683,1.172,4.846,4.687,4.853a4.5,4.5,0,0,0,2.344-.527V53.82a5.056,5.056,0,0,1-1.249.153A4.351,4.351,0,0,1,20.074,53.47Z" fill="#fff200"/></g><g id="hilton"><path d="M83.647,50.672a2.4,2.4,0,0,0-1.585.662V48.562H80.351v.315l.43.063v6.372l-.43.063v.315h1.711v-.263a2.142,2.142,0,0,0,1.239.358c1.491,0,2.341-.966,2.341-2.646C85.642,51.67,84.8,50.672,83.647,50.672Zm-.493,4.671a1.761,1.761,0,0,1-1.092-.419v-3.17a2.178,2.178,0,0,1,.871-.243c.84,0,1.344.725,1.344,1.87C84.277,54.6,83.857,55.343,83.154,55.343Zm6.4-4.577h1.427v.347l-.4.073L88.593,56c-.451,1.1-.861,2.015-1.8,2.015a3.333,3.333,0,0,1-.83-.094V56.835h.284l.189.43a.615.615,0,0,0,.409.125c.588,0,.977-.881,1.218-1.459l.053-.126-2-4.608-.389-.084v-.347h2.195v.358l-.431.084,1.291,3.023,1.207-3.045-.44-.073Zm8.158-1.994h2.341v.347l-.472.062V55.27l.472.064v.356H97.707v-.356l.5-.064V52.5H95.219V55.27l.462.064v.356h-2.3v-.356l.461-.064V49.181l-.461-.062v-.347h2.3v.347l-.462.062v2.6h2.992v-2.6l-.5-.062Zm5.061,6.54.442.063v.315h-2.153v-.315l.441-.063V51.144l-.441-.062v-.316h1.711Zm-1.333-6.068a.746.746,0,1,1,1.491-.031.757.757,0,0,1-.746.808A.725.725,0,0,1,101.435,49.244Zm4.421,6.068.441.063v.315h-2.153v-.315l.431-.063V48.94l-.431-.063v-.315h1.712Zm3.9-.157a2.786,2.786,0,0,0,.682-.053v.336a4.772,4.772,0,0,1-1.585.316c-.987,0-1.217-.453-1.217-1.313V51.228h-.9v-.462h.935V49.738l1.249-.378v1.406h1.155v.462h-1.155v2.93C108.911,54.914,109.069,55.155,109.751,55.155Zm3.538-4.524a2.484,2.484,0,0,0-2.645,2.644,2.247,2.247,0,0,0,2.561,2.563,2.449,2.449,0,0,0,2.646-2.563A2.381,2.381,0,0,0,113.289,50.631Zm-.052,4.828c-.725,0-1.186-.651-1.186-2.215,0-1.585.461-2.236,1.186-2.236.745,0,1.207.682,1.207,2.236C114.444,54.84,114.013,55.459,113.237,55.459Zm8.305-.147.441.063v.315h-2.152v-.315l.43-.063v-2.8c0-.777-.284-1.123-.872-1.123a2.146,2.146,0,0,0-1.018.41v3.516l.441.063v.315H116.65v-.315l.441-.063V51.176l-.441-.063v-.347h1.721v.683a2.747,2.747,0,0,1,1.774-.777c.966,0,1.4.567,1.4,1.679Zm3.612-6.435V50.1l.136.027v.1h-.6v-.1l.14-.027V49.009l-.545,1.222h-.057l-.518-1.2V50.1l.136.027v.1h-.427v-.1l.132-.027V48.877l-.132-.031v-.1h.525l.413.961.428-.961h.5v.1Zm-3.194-.129h1.355v.3H123.2l-.03-.156H122.8V50.1l.159.027v.1h-.643v-.1l.162-.027V48.887h-.371l-.026.156h-.121Z" fill="#00aeef"/></g></svg>