<svg height="34" viewBox="0 0 91 34" width="91" xmlns="http://www.w3.org/2000/svg"><g fill="none" transform=""><path d="m47.1715646 31.5118577c.7116861 0 1.0675291-.2371541 1.0675291-.8300395s-.4744573-.8300395-1.1861434-.8300395h-1.0675292v1.5415019h1.1861435zm-.1186143-2.0158103c.7116861 0 1.0675291-.2371541 1.0675291-.7114624s-.355843-.7114625-1.0675291-.7114625h-1.0675292v1.4229249zm-1.5419865-1.8972332h1.5419865c.9489147 0 1.5419865.3557313 1.5419865 1.0671937 0 .5928854-.3558431.9486166-.8303004 1.0671937.5930717.1185771.9489147.4743083.9489147 1.0671937 0 .7114624-.5930717 1.1857707-1.5419865 1.1857707h-1.6606008z" fill="#004251"/><path d="m52.1533672 30.0889328-1.5419865-2.4901186h.5930717l1.1861435 2.0158103 1.1861434-2.0158103h.4744574l-1.4233721 2.4901186v1.8972332h-.4744574z" fill="#004251"/><path d="m59.1516137 27.5988142h.4744573v1.8972332h2.2536726v-1.8972332h.5930718v4.3873518h-.5930718v-2.0158103h-2.2536726v2.0158103h-.4744573z" fill="#004251"/><path d="m65.200945 27.598814h1v4.387352h-1z" fill="#004251"/><path d="m68.4035327 27.5988142h.4744574v3.9130435h2.1350582v.4743083h-2.6095156z" fill="#004251"/><path d="m73.8597927 28.0731225h-1.4233722v-.4743083h3.3212017v.4743083h-1.4233721v3.9130435h-.4744574z" fill="#004251"/><path d="m3.43981606 2.57905138c0-1.18577075-.59307173-1.77865612-1.42337216-1.77865612s-1.42337216.71146245-1.42337216 1.77865612c0 1.18577075.59307173 1.77865613 1.42337216 1.77865613s1.42337216-.71146245 1.42337216-1.77865613m-3.32120171 0c0-1.4229249.83030043-2.25296442 1.89782955-2.25296442s1.89782955.83003952 1.89782955 2.25296442-.83030043 2.25296443-1.89782955 2.25296443-1.89782955-.83003953-1.89782955-2.25296443" fill="#004251" transform="translate(77.536837 27.272727)"/><path d="m83.9420122 27.5988142h.4744573l2.372287 3.5573123v-3.5573123h.4744574v4.3873518h-.4744574l-2.372287-3.5573122v3.5573122h-.4744573z" fill="#004251"/><path d="m12.8920184 23.8043478c.1186143 0 .2372287 0 .4744573-.118577.4744574 1.0671936 1.4233722 2.0158102 2.0164439 2.4901185-.1186143 0-.1186143 0-.1186143 0-1.5419865-.9486166-2.3722869-2.3715415-2.3722869-2.3715415m15.3012507 1.6600791s-8.4216186.7114624-11.2683629 2.1343873c-2.4909013 1.1857708-3.3212018 2.0158103-2.2536726 4.5059289 0 0-.8303005-.3557312-1.1861435-1.8972332-.4744574-1.4229249 2.0164439-4.743083 14.708179-4.743083m-7.2354751-1.7786561 1.1861434 1.1857707c-.355843 0-.7116861 0-1.0675291.1185771-.7116861-.5928854-1.0675291-1.0671937-1.3047578-1.4229249.7116861.1185771 1.1861435.1185771 1.1861435.1185771m8.3030042-.2371542c-4.1515021-1.4229249-12.2172777-.8300395-12.2172777-.8300395 8.6588473-1.6600791 12.2172777.8300395 12.2172777.8300395m.8303005-4.743083s-1.1861435.5928854-1.5419865.3557312c0 0 2.2536725-2.2529644 3.5584304-2.7272727 1.1861434-.3557312 1.7792152-.1185771 1.7792152-.1185771s-2.372287 1.1857708-3.3212018 2.3715415c0 0 .4744574 1.541502 2.2536726 1.4229249 0 0 .5930718.1185771.3558431-.7114624 0 0-.3558431-1.3043479 1.5419865-1.7786562 0 0-.5930717 2.2529645 1.8978295 2.6086957 0 0 .1186144.4743083-.1186143.5928854-.2372287 0-1.7792152.118577-2.6095156.118577-.7116861.1185771-1.5419865.2371542-2.2536726-.2371541-.8303005-.5928854-1.1861435-1.4229249-1.5419865-1.8972332m2.7281299-3.6758893c-.9489147.2371541-3.5584304 2.1343873-3.5584304 2.1343873 1.0675292-2.1343873 3.4398161-2.4901186 3.4398161-2.4901186 4.2701165-.7114624 5.812103 2.2529645 5.812103 2.2529645-1.8978296-2.2529645-4.7445739-2.0158103-5.6934887-1.8972332m-15.7757081 8.4189723h1.5419865c.2372287.5928854.8303004 1.3043478 1.0675291 1.6600791-.355843.118577-.711686.118577-1.0675291.118577-.8303004-.5928853-1.3047578-1.3043478-1.5419865-1.7786561m.2372287 2.2529644c-.2372287.1185771-.5930717.1185771-.8303004.2371542-1.4233722-.8300395-2.0164439-1.6600791-2.2536726-2.2529644.355843 0 .8303004-.1185771 1.1861434-.1185771.4744574.5928854 1.3047579 1.541502 1.8978296 2.1343873m-17.08046596-.2371541c.11861435.5928854.94891478.9486166 1.42337216 1.1857707.35584305.2371542 4.86318823 1.8972332 5.69348866 2.2529645.59307173.3557312 3.91427344 2.8458498 4.74457384 3.4387351l-3.55843038.4743083s9.48914778 1.1857708 16.25016558 1.1857708c6.6424034 0 17.0804659-2.1343874 17.0804659-2.1343874l-4.6259595.3557313c.9489148-.7114625 2.6095156-2.4901186 2.6095156-4.3873518 0-1.3043478-.355843-2.2529644-.7116861-2.9644269-.4744574-.7114624-.8303004-1.4229249-1.1861434-1.8972332-.2372287-.2371541-.3558431-.4743083-.4744574-.7114625-.4744574-.9486166-.1186144-1.3043478-.1186144-1.3043478.2372287-.2371541.5930718-.2371541.5930718-.2371541h.2372287c.2372286.118577 2.3722869.5928853 3.5584304.9486166 1.0675291.3557312.8303004-.5928854.4744573-.8300396-.4744573-.2371541-1.5419865-1.0671936-1.8978295-1.4229249-.355843-.3557312-.355843-.8300395-.4744574-1.0671936 0-.2371542-.1186143-2.6086957-2.2536726-3.5573123-.9489148-.4743083-2.0164439-.8300395-3.2025873-.9486166-1.5419866-.1185771-2.4909013 0-3.9142735.9486166-1.5419865.9486166-3.5584304 4.3873518-3.7956591 4.743083s-.355843.3557312-.4744574.5928854c-.1186143.2371541.2372287.3557312.7116861.3557312.2372287 0 1.5419865-.2371541 1.5419865-.2371541s.4744574.4743083.355843.9486166v.118577c0 .1185771-.1186143.1185771-.2372286.1185771-10.5566769-2.1343873-17.080466 1.4229249-17.080466 1.4229249s-5.57487431-1.0671937-6.04933169-1.1857707c-.71168609-.1185771-.2372287.7114624-.2372287.7114624s1.18614347 1.3043479 1.77921521 1.7786562c.59307173.4743083.11861434.4743083-.2372287.7114624-.47445739.2371542-.94891477.2371542-.94891477.2371542s-4.0328878-.2371542-4.50734519-.2371542c-.71168608.1185771-1.18614347-.1185771-1.06752912.5928854" fill="#007f7b"/><g fill="#004251"><path d="m7.55437275 10.5237154h2.84674435c-.71168611-.2371541-.71168611-1.18577074-.71168611-1.89723319v-.23715415-5.81027668-.23715415c0-.71146245 0-1.66007905.71168611-1.8972332h-2.84674435c.71168608.23715415.71168608 1.18577075.71168608 1.8972332v.23715415 1.8972332h-5.5748743v-1.8972332-.23715415c0-.71146245 0-1.66007905.71168608-1.8972332h-2.84674433c.71168608.23715415.71168608 1.18577075.71168608 1.8972332v.23715415 5.81027668.23715415c0 .71146245 0 1.66007909-.71168608 1.89723319h2.84674433c-.71168608-.2371541-.71168608-1.18577074-.71168608-1.89723319v-.23715415-2.72727272h5.5748743v2.72727272.23715415c0 .71146245 0 1.54150199-.71168608 1.89723319z"/><path d="m16.4504488 9.69367589c-1.0675292 0-2.1350583-.4743083-2.8467444-1.4229249-.711686-.83003953-1.0675291-1.8972332-1.0675291-2.96442688 0-1.18577075.3558431-2.13438735 1.0675291-2.8458498.7116861-.71146245 1.6606009-1.18577075 2.8467444-1.18577075 2.4909013 0 3.7956591 2.25296442 3.7956591 4.38735178 0 1.06719367-.3558431 2.13438735-1.0675292 2.8458498-.5930717.83003952-1.6606008 1.18577075-2.7281299 1.18577075m-.1186144-9.48616601c-3.083973 0-5.5748743 2.3715415-5.5748743 5.21739131 0 2.96442687 2.372287 5.21739131 5.5748743 5.21739131 3.083973 0 5.5748743-2.37154151 5.5748743-5.33596839 0-2.8458498-2.3722869-5.09881423-5.4562599-5.09881423s0 0-.1186144 0"/><path d="m24.7534531 1.98616601 2.9653586 6.87747035c.3558431.83003953.5930718 1.30434784 1.3047578 1.77865614l3.4398161-8.77470357.8303004 7.47035573c0 .4743083-.1186143.94861664-.5930717 1.18577074h2.8467443c-.5930717-.4743083-.7116861-.83003951-.8303004-1.54150196l-.9489148-7.47035573c0-.23715415 0-.83003953.4744574-.9486166h-2.6095156c0 .35573122-.1186144.59288537-.2372287.9486166l-2.4909013 6.52173913-2.8467443-6.75889328v-.11857708c-.1186144-.23715415-.1186144-.35573122-.1186144-.59288537h-2.6095156c.5930717.35573122.5930717.9486166.4744574 1.30434782v.11857708l-.8303005 6.40316205c-.1186143.83003953-.2372286 1.54150198-.8303004 2.01581024h2.4909013c-.7116861-.3557312-.5930717-.94861656-.4744574-1.89723316z"/><path d="m41.0036186.56324111h-4.8631882c.711686.23715415.711686 1.18577075.711686 1.8972332v.23715415 5.6916996.23715415c0 .71146245 0 1.66007909-.711686 1.89723319h6.2865603l.7116861-2.01581026c-.7116861.59288537-1.5419865.9486166-2.4909013.9486166h-2.2536726v-3.7944664h1.1861435c.3558431 0 1.0675291 0 1.3047578.4743083v-1.54150198c-.2372287.11857708-.4744574.11857708-.7116861.11857708h-1.7792152v-3.08300396h1.5419866c.711686 0 1.3047578 0 1.7792152.59288538v-1.66007905z"/><path d="m50.1369233 3.17193676 1.6606008 5.33596838c.4744574 1.4229249.5930718 1.4229249 1.5419866 2.13438736.1186143.1185771.2372286.1185771.355843.2371541l3.2025874-10.43478257h-2.2536726c1.0675291.35573123.7116861 1.54150198.4744574 2.3715415 0 .11857708 0 .11857708-.1186144.23715415l-1.7792152 5.69169961-2.1350582-6.64031621c-.2372287-.59288537-.3558431-1.18577075-.2372287-1.54150197h-2.1350583c.8303005.4743083.4744574 1.4229249.2372287 2.3715415l-1.7792152 5.81027668v-.11857708l-2.2536726-7.1146245c-.1186143-.23715415-.2372287-.71146245-.2372287-1.06719368h-2.1350582c.7116861.4743083.9489148 1.30434783 1.1861435 2.01581028 0 .11857707.1186143.23715415.1186143.35573122l1.7792152 5.57312253c.4744574 1.30434783.5930717 1.4229249 1.5419865 2.13438734.1186144.1185771.3558431.2371542.4744574.3557312z"/><path d="m62.7100441 9.69367589c-1.0675292 0-2.1350583-.4743083-2.8467444-1.4229249-.711686-.83003953-1.0675291-1.8972332-1.0675291-2.96442688 0-1.18577075.3558431-2.13438735 1.0675291-2.8458498.7116861-.71146245 1.6606009-1.18577075 2.8467444-1.18577075 2.4909012 0 3.7956591 2.25296442 3.7956591 4.38735178 0 1.06719367-.3558431 2.13438735-1.0675292 2.8458498-.711686.83003952-1.6606008 1.18577075-2.7281299 1.18577075m-.1186144-9.48616601c-3.083973 0-5.5748743 2.3715415-5.5748743 5.21739131 0 2.96442687 2.3722869 5.21739131 5.5748743 5.21739131 3.083973 0 5.5748743-2.37154151 5.5748743-5.33596839 0-2.8458498-2.3722869-5.09881423-5.4562599-5.09881423s0 0-.1186144 0"/><path d="m74.6900931 9.69367589c-1.0675291 0-2.1350582-.4743083-2.8467443-1.4229249-.7116861-.83003953-1.0675291-1.8972332-1.0675291-2.96442688 0-1.18577075.355843-2.13438735 1.0675291-2.8458498s1.6606008-1.18577075 2.8467443-1.18577075c2.4909013 0 3.7956591 2.25296442 3.7956591 4.38735178 0 1.06719367-.355843 2.13438735-1.0675291 2.8458498-.5930718.83003952-1.5419865 1.18577075-2.72813 1.18577075m0-9.48616601c-3.083973 0-5.5748743 2.3715415-5.5748743 5.21739131 0 2.96442687 2.3722869 5.21739131 5.5748743 5.21739131 3.083973 0 5.5748743-2.37154151 5.5748743-5.33596839 0-2.8458498-2.3722869-5.09881423-5.45626-5.09881423-.1186143 0-.1186143 0-.1186143 0"/><path d="m84.2978552 1.51185771c1.3047578 0 2.2536726.35573122 2.9653587 1.06719367s1.0675291 1.66007905 1.0675291 2.96442688c0 1.18577075-.4744574 2.25296443-1.3047578 2.96442688-.7116861.59288537-1.7792152.9486166-2.9653587.9486166h-1.1861435v-.23715415-7.70750988zm-3.5584304 9.01185769h3.6770447c3.3212018 0 5.6934887-2.13438734 5.6934887-5.09881421 0-2.96442688-2.1350582-4.86166008-5.5748743-4.86166008h-3.6770448c.7116861.23715415.7116861 1.18577075.7116861 1.77865612v.23715415 5.69169961.23715415c-.1186143.83003952-.1186143 1.4229249-.8303004 2.01581026z"/><path d="m45.5109638 22.8557312c.8303004.3557313 1.7792152.4743083 2.7281299.4743083 2.2536726 0 4.0328878-1.4229249 4.0328878-3.0830039 0-1.541502-1.4233721-2.1343874-2.8467443-2.8458498-1.1861435-.5928854-2.3722869-1.0671937-2.3722869-2.0158103 0-1.0671937 1.0675291-1.4229249 2.0164439-1.4229249.8303004 0 1.7792152.3557312 2.3722869.9486166v-1.6600791c-.7116861-.2371541-1.4233722-.3557312-2.2536726-.3557312-1.0675291 0-1.8978295.2371542-2.6095156.5928854-.8303004.4743083-1.1861435 1.1857707-1.1861435 2.0158103 0 1.7786561 1.4233722 2.3715415 2.9653587 3.0830039 1.1861435.5928854 2.3722869 1.0671937 2.3722869 2.1343874 0 1.0671936-1.3047578 1.660079-2.2536726 1.660079-1.1861434 0-2.3722869-.4743083-3.3212017-1.1857707z"/><path d="m52.7464389 13.1324111c.7116861.2371541.7116861 1.1857707.7116861 1.8972332v.2371541 4.1501976c0 1.0671937 0 2.0158103.7116861 2.8458498.5930717.7114625 1.6606008 1.0671937 2.72813 1.0671937.9489147 0 2.2536726-.3557312 2.9653586-1.1857707v1.0671937h2.1350583c-.7116861-.2371542-.7116861-1.1857708-.7116861-1.8972333 0-.118577 0-.118577 0-.2371541v-5.6916996c0-.1185771 0-.1185771 0-.2371542 0-.7114624 0-1.660079.7116861-1.8972332h-2.8467443c.711686.2371542.711686 1.1857708.711686 1.8972332v.2371542 4.6245059c0 .4743083 0 .8300395-.355843 1.3043478-.4744574.7114625-1.3047578 1.0671937-2.2536726 1.0671937-1.6606009 0-2.4909013-.9486166-2.4909013-2.9644269v-4.0316205-.2371542c0-.7114624 0-1.660079.7116861-1.8972332z"/><path d="m63.1845014 23.0928854h2.8467444c-.7116861-.2371542-.7116861-1.1857708-.7116861-1.8972332v-.2371542-5.6916996-.2371541c0-.7114625 0-1.6600791.7116861-1.8972332h-2.8467444c.7116861.2371541.7116861 1.1857707.7116861 1.8972332v.2371541 5.6916996.2371542c0 .7114624 0 1.660079-.7116861 1.8972332z"/><path d="m67.0987749 13.1324111-.4744574 1.660079c.4744574-.3557312 1.0675291-.5928854 1.7792152-.5928854h1.3047578v6.7588933.2371542c0 .7114624 0 1.660079-.7116861 1.8972332h2.9653587c-.8303004-.4743083-.8303004-1.0671937-.8303004-1.8972332v-6.9960475h1.4233722c.4744573 0 1.0675291.1185771 1.3047578.5928854l.4744574-1.660079h-.7116861-6.0493317z"/><path d="m83.3489404 22.8557312c.8303005.3557313 1.7792152.4743083 2.72813.4743083 2.2536726 0 4.0328878-1.4229249 4.0328878-3.0830039 0-1.541502-1.4233722-2.1343874-2.8467443-2.8458498-1.1861435-.5928854-2.372287-1.0671937-2.372287-2.0158103 0-1.0671937 1.0675292-1.4229249 2.0164439-1.4229249.8303005 0 1.7792152.3557312 2.372287.9486166v-1.6600791c-.7116861-.2371541-1.4233722-.3557312-2.2536726-.3557312-1.0675291 0-1.8978296.2371542-2.6095157.5928854-.8303004.4743083-1.1861434 1.1857707-1.1861434 2.0158103 0 1.7786561 1.4233721 2.3715415 2.9653586 3.0830039 1.1861435.5928854 2.372287 1.0671937 2.372287 2.1343874 0 1.0671936-1.3047578 1.660079-2.2536726 1.660079-1.1861435 0-2.3722869-.4743083-3.3212017-1.1857707z"/><path d="m80.1463531 13.1324111h-4.7445739c.7116861.2371541.7116861 1.1857707.7116861 1.8972332v.2371541 5.6916996.2371542c0 .7114624 0 1.660079-.7116861 1.8972332h6.2865604l.711686-1.8972332c-.711686.5928853-1.5419865.9486166-2.4909012.9486166h-2.2536726v-3.9130435h1.1861434c.3558431 0 1.0675292 0 1.3047579.4743083v-1.6600791c-.2372287.1185771-.4744574.1185771-.7116861.1185771h-1.7792152v-2.9644269h1.5419865c.7116861 0 1.3047578 0 1.7792152.5928854v-1.660079z"/><path d="m88.0935143 26.7687747.2372287.1185771v.9486166h.1186143v-.9486166h.2372287v-.1185771zm1.8978295 0-.355843.9486166-.355843-.9486166h-.2372287v1.0671937h.1186143v-.8300395l.3558431.8300395h.1186143l.355843-.8300395v.8300395h.1186144v-1.0671937z"/></g></g></svg>