<svg height="45" viewBox="0 0 83 45" width="83" xmlns="http://www.w3.org/2000/svg"><g fill="none" transform=""><path d="m82.7922078 40.2067669-20.106679-7.7819549v-24.64285711l20.106679-7.78195489z" fill="#fff"/><g fill="#4b3900"><path d="m59.7286642 22.9921394v2.4760766h-11.2360854v-17.56835271h11.2360854v2.47607651h-8.6340445v5.0700616h7.4512987v2.3581681h-7.4512987v5.1879699z"/><path d="m59.6103896 29.0054682v3.3014354h-.5913729l-1.3010204-2.0044429v2.0044429h-.7096475v-3.3014354h.5913729l1.419295 2.0044429v-2.0044429z"/><path d="m2.36549165 2.35816815c0-.58954204 0-.82535885-.11827458-.94326726s-.23654917-.11790841-.35482375-.11790841-.35482375.11790841-.47309833.11790841c-.11827458.11790841-.11827458.35372522-.11827458.94326726 0 .58954203 0 .82535885.11827458.94326726.11827458.1179084.23654917.1179084.47309833.1179084.23654917 0 .35482375-.1179084.35482375-.1179084.11827458-.11790841.11827458-.23581682.11827458-.94326726m.59137291 0c0 .58954203 0 .94326726-.35482374 1.29699248-.23654917.23581681-.47309833.35372522-.94619666.35372522-.35482375 0-.7096475-.11790841-.94619666-.35372522-.35482375-.35372522-.35482375-.70745045-.35482375-1.29699248 0-.58954204 0-.94326726.35482375-1.29699248.23654916-.23581682.47309833-.35372523.94619666-.35372523.35482374 0 .70964749.11790841.94619666.35372523.35482374.35372522.35482374.70745044.35482374 1.29699248" transform="translate(52.040816 28.298018)"/><path d="m50.8580705 29.0054682v.5895421h-.8279221v2.7118933h-.5913729v-2.7118933h-.9461967v-.5895421z"/><path d="m47.309833 31.7173616v.589542h-2.247217v-3.3014354h.7096475v2.7118934z"/><path d="m45.4174397 7.89986329v17.56835271h-2.6020408v-10.9654819h-.1182746l-3.6665121 8.4894053h-2.247217l-3.6665121-8.4894053h-.1182746v10.9654819h-2.6020408v-17.56835271h2.4837663l5.085807 11.43711551 4.9675325-11.43711551z"/><path d="m42.342301 29.005468h1v3.301435h-1z"/><path d="m40.2133581 29.0054682v3.3014354h-.7096475v-1.4149009h-1.0644713v1.4149009h-.7096475v-3.3014354h.7096475v1.4149009h1.0644713v-1.4149009z"/><path d="m33.5899814 29.0054682-1.0644712 2.0044429v1.2969925h-.5913729v-1.2969925l-.9461967-2.0044429h.5913729l.7096475 1.2969925.591373-1.2969925z"/><g transform="translate(14.938826 7.074504)"><path d="m13.6836233 22.874231c0-.2358168-.1182746-.3537252-.4730983-.3537252h-.5913729v.7074505h.5913729c.2365492 0 .4730983-.1179085.4730983-.3537253m0 1.4149009c0-.2358168-.1182746-.3537252-.4730983-.3537252h-.7096475v.8253589h.7096475c.3548237-.1179085.4730983-.2358169.4730983-.4716337m.2365492-.7074504c.2365492.1179084.4730983.3537252.4730983.7074504 0 .5895421-.4730983.9432673-1.0644712.9432673h-1.419295v-3.3014354h1.3010204c.5913729 0 1.0644712.3537252 1.0644712.9432672 0 .3537253-.2365491.5895421-.3548237.7074505"/><path d="m10.2536604 9.550581c0-3.65516063-.2365491-4.12679426-.94619663-4.95215311-.59137291-.70745045-1.41929499-1.29699248-2.7203154-1.29699248s-2.24721707.58954203-2.7203154 1.29699248c-.70964749.94326726-.94619666 1.41490089-.94619666 4.95215311 0 3.6551606.23654917 4.1267943.94619666 4.9521531.59137292.7074505 1.41929499 1.2969925 2.7203154 1.2969925s2.24721707-.589542 2.7203154-1.2969925c.70964753-.8253588.94619663-1.2969925.94619663-4.9521531m1.8923934-5.77751196c.5913729 1.06117566.827922 1.53280929.827922 5.77751196 0 4.2447027-.2365491 4.7163363-.827922 5.777512-.8279221 1.5328093-2.72031545 3.183527-5.55890543 3.183527s-4.7309833-1.6507177-5.55890538-3.183527c-.59137291-1.0611757-.82792207-1.5328093-.82792207-5.777512 0-4.24470267.23654916-4.7163363.82792207-5.77751196.82792208-1.5328093 2.7203154-3.183527 5.55890538-3.183527 2.7203154 0 4.73098333 1.6507177 5.55890543 3.183527"/><path d="m7.41507045 22.284689-.35482375.3537252c-.23654916-.2358168-.47309833-.2358168-.70964749-.2358168-.35482375 0-.47309833.2358168-.47309833.4716336 0 .1179084 0 .1179084.11827458.2358168.11827458 0 .11827458.1179085.35482375.1179085h.35482375c.35482374 0 .47309833.1179084.59137291.2358168s.23654916.3537252.23654916.7074504c0 .5895421-.59137291 1.0611757-1.18274582 1.0611757-.47309833 0-.94619666-.1179084-1.18274583-.4716336l.47309833-.4716337c.23654917.2358168.47309833.2358168.82792208.2358168s.59137291-.1179084.59137291-.3537252c0-.1179084 0-.2358168-.11827458-.2358168-.11827458-.1179084-.11827458-.1179084-.23654916-.1179084h-.35482375c-.23654917 0-.47309833-.1179084-.59137292-.2358168-.11827458-.1179084-.23654916-.3537252-.23654916-.7074505 0-.589542.47309833-.9432672 1.18274583-.9432672.11827458 0 .47309833.1179084.70964749.3537252"/></g><path d="m18.3325603 31.7173616v.589542h-2.2472171v-3.3014354h2.2472171v.5895421h-1.5375696v.8253588h1.3010204v.4716336h-1.3010204v.8253589z"/><path d="m14.1929499 29.0054682v.5895421h-.8279221v2.7118933h-.5913729v-2.7118933h-.9461966v-.5895421z"/><path d="m12.6553803 7.89986329v17.56835271h-2.6020408v-7.6640465h-7.09647494v7.6640465h-2.60204081v-17.56835271h2.60204081v7.54613811h7.09647494v-7.54613811z"/><path d="m9.343692 29.005468h1v3.301435h-1z"/><path d="m7.21474954 29.0054682v2.1223513c0 .7074505-.59137292 1.1790841-1.18274583 1.1790841-.70964749 0-1.18274583-.4716336-1.18274583-1.1790841v-2.1223513h.59137292v2.1223513c0 .3537253.23654916.5895421.59137291.5895421s.59137291-.2358168.59137291-.5895421v-2.1223513z"/><path d="m2.83858998 29.3591934-.35482375.3537253c-.23654916-.2358169-.47309833-.2358169-.70964749-.2358169-.35482375 0-.47309833.2358169-.47309833.4716337 0 .1179084 0 .1179084.11827458.2358168.11827458 0 .11827458.1179084.35482375.1179084h.35482375c.35482374 0 .47309833.1179084.59137291.2358168.23654916.1179084.23654916.3537252.23654916.7074505 0 .589542-.59137291 1.0611756-1.18274582 1.0611756-.47309833 0-.94619666-.1179084-1.18274583-.4716336l.47309833-.4716336c.23654917.2358168.47309833.2358168.82792208.2358168s.59137291-.1179084.59137291-.3537252c0-.1179085 0-.2358169-.11827458-.2358169-.11827458-.1179084-.11827458-.1179084-.23654916-.1179084h-.35482375c-.23654917 0-.47309833-.1179084-.59137291-.2358168-.11827459-.1179084-.23654917-.3537252-.23654917-.7074504 0-.5895421.47309833-.9432673 1.18274583-.9432673 0 0 .35482374.1179084.70964749.3537252"/></g><path d="m78.4160482 42.4470267h-.3548237v.589542h.3548237c.1182746 0 .2365492-.1179084.2365492-.2358168.1182746-.2358168 0-.3537252-.2365492-.3537252zm.3548238 1.5328093-.3548238-.7074505h-.2365491v.7074505h-.3548238v-1.7686262h.7096475c.3548238 0 .5913729.2358169.5913729.5895421 0 .2358168-.1182745.4716336-.3548237.4716336l.3548237.7074505zm-.3548238-2.2402598c-.7096475 0-1.3010204.5895421-1.3010204 1.2969925s.5913729 1.2969925 1.3010204 1.2969925 1.3010204-.5895421 1.3010204-1.2969925-.5913729-1.2969925-1.3010204-1.2969925zm0 2.9477102c-.9461966 0-1.6558441-.7074504-1.6558441-1.6507177s.7096475-1.6507177 1.6558441-1.6507177c.9461967 0 1.6558442.7074504 1.6558442 1.6507177s-.7096475 1.6507177-1.6558442 1.6507177z" fill="#b2bb1e"/><path d="m80.0718924 35.9620643v-5.0700616l-10.2898887-2.3581681 6.7416512-6.8386876c1.8923933-2.4760766 3.3116883-5.18797 3.3116883-9.1968558-.4730983-6.60287083-4.2578849-7.07450446-7.2147495-6.60287083-4.0213358 1.29699248-6.9782004 4.48051943-7.2147495 8.60731373l3.9030612-.2358168c.2365491-2.1223513 1.5375696-3.6551606 3.3116883-4.1267943 1.7741187-.35372519 3.1934137.7074505 3.3116883 3.0656186 0 2.004443-1.1827458 3.6551607-2.2472171 5.0700615l-8.3974953 8.4894054v4.0088858zm2.7203154-35.9620643v40.2067669l-20.106679-7.6640465v-24.64285711z" fill="#b2bb1e"/></g></svg>